<?xml version="1.0" encoding="utf-8"?>
<!-- Generator: Adobe Illustrator 16.0.4, SVG Export Plug-In . SVG Version: 6.00 Build 0)  -->
<!DOCTYPE svg PUBLIC "-//W3C//DTD SVG 1.1//EN" "http://www.w3.org/Graphics/SVG/1.1/DTD/svg11.dtd">
<svg version="1.1" id="Layer_1" xmlns="http://www.w3.org/2000/svg" xmlns:xlink="http://www.w3.org/1999/xlink" x="0px" y="0px"
	 width="792px" height="612px" viewBox="0 0 792 612" enable-background="new 0 0 792 612" xml:space="preserve">
<g opacity="0.3">
	<g>
		<defs>
			<rect id="SVGID_1_" x="264.653" y="52.279" width="277.391" height="377.721"/>
		</defs>
		<clipPath id="SVGID_2_">
			<use xlink:href="#SVGID_1_"  overflow="visible"/>
		</clipPath>
		<g clip-path="url(#SVGID_2_)">
			<defs>
				<rect id="SVGID_3_" x="264.653" y="52.279" width="277.391" height="377.721"/>
			</defs>
			<clipPath id="SVGID_4_">
				<use xlink:href="#SVGID_3_"  overflow="visible"/>
			</clipPath>
			<path clip-path="url(#SVGID_4_)" d="M400.368,266.912c-12.927-1.478-22.966-12.453-22.966-25.777
				c0-6.568,2.441-12.565,6.465-17.135"/>
			<path clip-path="url(#SVGID_4_)" d="M406.001,215.324c13.084,1.328,23.293,12.377,23.293,25.811
				c0,6.567-2.439,12.564-6.463,17.134"/>
			
				<path clip-path="url(#SVGID_4_)" fill="none" stroke="#BEBEBE" stroke-width="16.606" stroke-linecap="round" stroke-miterlimit="10" d="
				M440.044,204.444c9.389,9.391,15.198,22.361,15.198,36.69c0,14.333-5.81,27.307-15.198,36.695"/>
			
				<path clip-path="url(#SVGID_4_)" fill="none" stroke="#BEBEBE" stroke-width="16.606" stroke-linecap="round" stroke-miterlimit="10" d="
				M366.656,277.83c-9.39-9.39-15.202-22.362-15.202-36.695c0-14.329,5.809-27.3,15.196-36.688"/>
			
				<path clip-path="url(#SVGID_4_)" fill="none" stroke="#BEBEBE" stroke-width="16.606" stroke-linecap="round" stroke-miterlimit="10" d="
				M464.263,180.224c15.586,15.587,25.224,37.124,25.224,60.911c0,23.785-9.638,45.322-25.224,60.91"/>
			
				<path clip-path="url(#SVGID_4_)" fill="none" stroke="#BEBEBE" stroke-width="16.606" stroke-linecap="round" stroke-miterlimit="10" d="
				M342.438,302.051c-15.592-15.594-25.233-37.125-25.233-60.917c0-23.783,9.641-45.319,25.231-60.907"/>
			
				<path clip-path="url(#SVGID_4_)" fill="none" stroke="#BEBEBE" stroke-width="16.606" stroke-linecap="round" stroke-miterlimit="10" d="
				M318.219,326.268c-21.788-21.787-35.263-51.883-35.263-85.132c0-33.242,13.473-63.339,35.258-85.122"/>
			
				<path clip-path="url(#SVGID_4_)" fill="none" stroke="#BEBEBE" stroke-width="16.606" stroke-linecap="round" stroke-miterlimit="10" d="
				M488.474,156.005c21.787,21.786,35.268,51.889,35.268,85.13c0,33.243-13.48,63.342-35.262,85.126"/>
			<polygon clip-path="url(#SVGID_4_)" fill="#ED1F24" points="362.076,63.665 419.858,195.739 395.093,195.739 436.368,303.047 
				411.601,303.047 444.621,418.615 386.839,286.54 411.601,286.54 370.332,179.228 395.093,179.228 			"/>
		</g>
	</g>
</g>
<g>
	<path fill="none" d="M779.359,360.332C779.359,509.811,611.015,631,403.349,631c-207.668,0-376.01-121.189-376.01-270.668
		c0-149.48,168.342-270.67,376.01-270.67C611.015,89.662,779.359,210.852,779.359,360.332z"/>
	<path d="M22.797,218.924l1.292-0.156c-0.014,4.199,0.606,7.757,1.861,10.676c1.615,3.757,4.098,6.78,7.449,9.068
		c4.064,2.775,8.734,4.001,14.011,3.678c-0.155-1.8-0.476-3.036-0.963-3.708c-0.487-0.671-2.176-1.994-5.065-3.967l-12.944-8.838
		l-1.862-19.423c3.105-2.106,5.391-3.871,6.856-5.294c1.466-1.423,2.959-3.249,4.482-5.479l0.453-0.663l1.38,0.243l1.295,7.875
		c-2.531,2.963-6.172,5.772-10.923,8.428l33.193,22.24l0.776-1.075c1.889-2.766,3.136-5.611,3.742-8.535
		c0.606-2.924,0.677-6.333,0.214-10.226l1.454-0.299c1.246,3.477,1.965,6.545,2.157,9.204c0.193,2.659-0.13,5.482-0.967,8.469
		c-0.837,2.987-2.071,5.674-3.702,8.063c-2.42,3.544-5.555,6.296-9.407,8.255c-3.852,1.96-7.981,2.734-12.389,2.323
		c-4.407-0.411-8.306-1.773-11.696-4.088c-4.18-2.854-7.197-6.748-9.053-11.683C22.989,230.142,22.441,225.113,22.797,218.924z
		 M29.008,212.553l0.622,5.381l13.188,9.005c1.639,1.119,2.669,1.95,3.09,2.493c0.582,0.68,1.04,1.645,1.375,2.893
		c0.676,2.53,1.201,5.778,1.575,9.743c2.767-0.375,5.21-1.133,7.33-2.275c2.12-1.142,4.144-2.794,6.073-4.958L29.008,212.553z"/>
	<path d="M63.578,184.287l15.153,0.468l-2.446,18.983l4.705,4.291l7.848-3.828l0.936-6.581l1.294,0.139l-1.786,13.69
		c-2.471,0.875-4.409,1.685-5.813,2.428c-1.403,0.743-3.25,1.936-5.538,3.58l-0.646-0.589c0.19-0.9,0.121-1.681-0.207-2.343
		c-0.328-0.662-1.335-1.763-3.024-3.303l-14.785-13.486c0.892-2.153,1.583-3.985,2.075-5.494
		C61.688,191.135,62.434,188.484,63.578,184.287z M62.967,190.927l-0.149,0.527l11.737,10.706l1.438-11.162L62.967,190.927z"/>
	<path d="M87.821,160.699l8.198,1.095l-0.724,7.051l-7.045-1.138l-0.423,4.668l13.766,15.002l4.878-0.583l0.739-4.524l1.35,0.281
		l-1.763,11.352c-2.558,0.036-4.565,0.216-6.021,0.54c-1.457,0.324-2.893,0.85-4.309,1.579l-0.521-0.567
		c0.268-1.226,0.269-2.217,0.004-2.971c-0.265-0.754-1.098-1.896-2.502-3.426l-9.651-10.517c-1.214-1.323-2.17-2.069-2.866-2.237
		c-0.697-0.168-1.222-0.09-1.575,0.234c-0.387,0.355-0.602,1.186-0.644,2.49l-1.317-0.168l1.093-9.598
		c2.491-0.228,4.382-0.175,5.674,0.159c0.818,0.199,1.645,0.754,2.481,1.665L87.821,160.699z"/>
	<path d="M98.243,156.814l0.218-15.497l0.797-0.628l5.701,7.802l5.524-4.352l2.424,3.078l-5.524,4.352l14.592,18.523l4.875-0.144
		l0.676-2.76l1.336,0.283l-2.25,9.611c-3.718-0.485-7.175-0.078-10.372,1.222l-0.433-0.549c0.343-1.072,0.424-1.969,0.243-2.689
		c-0.223-0.923-0.84-2.028-1.853-3.312l-12.422-15.769l-2.583,2.035L98.243,156.814z"/>
	<path d="M114.431,124.901l3.641-2.547l0.376,8.959l-1.147,0.802L114.431,124.901z M119.125,136.219l8.047,0.668l-0.73,3.777
		l10.91,15.594c1.15,1.644,2.037,2.618,2.661,2.921c0.624,0.304,1.083,0.353,1.375,0.147c0.207-0.145,0.364-0.325,0.47-0.542
		c0.148-0.303,0.381-1.035,0.699-2.197l1.324,0.397l-2.659,9.29c-2.297-0.015-4.003-0.351-5.12-1.007s-2.517-2.188-4.202-4.597
		l-11.191-15.996l-3.684-0.689L119.125,136.219z"/>
	<path d="M139.402,109.709l2.137,5.512l-6.225,2.149l4.46,7.155l4.602-2.869l2.073,3.325l-4.602,2.869l12.418,19.922l4.928,0.432
		l1.15-3.314l1.201,0.406l-3.442,9.855c-3.821-0.696-7.268-0.637-10.339,0.179l-0.622-0.602c0.429-0.899,0.627-1.683,0.596-2.351
		c-0.031-1.107-0.404-2.235-1.12-3.383l-10.827-17.369l-2.791,1.74l-2.073-3.325l2.791-1.74l-4.46-7.155
		c1.73-3.882,2.921-6.987,3.571-9.317L139.402,109.709z"/>
	<path d="M150.688,102.423l3.88-2.165l-0.535,8.951l-1.222,0.682L150.688,102.423z M154.211,114.159l7.937,1.481l-1.11,3.684
		l9.271,16.621c0.977,1.752,1.76,2.811,2.35,3.176c0.59,0.366,1.041,0.461,1.354,0.287c0.221-0.123,0.395-0.287,0.522-0.492
		c0.178-0.286,0.483-0.991,0.918-2.115l1.277,0.53l-3.588,8.972c-2.284-0.249-3.947-0.756-4.992-1.522
		c-1.044-0.766-2.282-2.433-3.713-4.999l-9.51-17.049l-3.595-1.059L154.211,114.159z"/>
	<path d="M176.585,102.452l10.44,0.652l-0.941,6.526l-7.882-0.527l9.855,20.027l7.535-0.28l2.115-3.993l0.993,1.18l-4.958,9.537
		c-2.562-0.143-4.685-0.131-6.369,0.034s-3.657,0.559-5.921,1.179l-0.371-0.753c0.485-0.862,0.699-1.643,0.641-2.343
		c-0.067-0.981-0.527-2.339-1.382-4.077l-8.79-17.861C173.575,109.276,175.253,106.175,176.585,102.452z"/>
	<path d="M213.643,87.859l1.351-0.027c-0.418,2.291-0.585,3.981-0.502,5.07c0.083,1.088,0.462,2.452,1.137,4.091l5.679,13.779
		c0.942,2.286,1.693,3.648,2.252,4.086c0.559,0.438,1.064,0.564,1.516,0.378c0.235-0.097,0.455-0.26,0.66-0.488
		c0.114-0.167,0.423-0.727,0.927-1.679l1.206,0.676l-4.42,8.785c-2.2-0.607-3.793-1.306-4.777-2.099
		c-0.985-0.792-1.888-2.091-2.708-3.897l-6.618,11.809c-4.945-1.499-8.021-3.717-9.232-6.655c-0.81-1.965-1.171-3.976-1.082-6.034
		c0.126-2.704,0.864-6.104,2.216-10.198l-7.319-6.712l0.106-1.024c0.866-0.281,1.502-0.506,1.912-0.674
		c2.539-1.046,4.363-2.971,5.473-5.775c1.948,0.271,3.968,0.299,6.057,0.087c2.09-0.212,3.629-0.522,4.619-0.931
		c0.452-0.186,0.763-0.407,0.935-0.664C213.202,89.507,213.406,88.872,213.643,87.859z M208.058,97.354l-12.462,1.162l7.372,6.713
		l8.504,0.409L208.058,97.354z M212.03,106.99l-9.342-0.448c-0.122,3.132,0.227,5.692,1.045,7.678
		c1.442,3.499,4.215,5.728,8.321,6.688l3.257-5.956L212.03,106.99z"/>
	<path d="M221.657,87.388l5.29-14.568l0.959-0.332l2.826,9.24l6.646-2.299l1.281,3.703l-6.646,2.299l7.708,22.285l4.652,1.464
		l1.544-2.385l1.17,0.706l-5.278,8.341c-3.354-1.678-6.753-2.427-10.199-2.248l-0.229-0.661c0.675-0.901,1.046-1.721,1.111-2.46
		c0.092-0.946-0.129-2.192-0.663-3.737l-6.562-18.972l-3.108,1.075L221.657,87.388z"/>
	<path d="M256.227,72.281l12.675,8.317l-12.005,14.907l1.769,6.117l8.691,0.837l4.237-5.122l1.031,0.794l-8.676,10.739
		c-2.564-0.545-4.64-0.868-6.225-0.968c-1.585-0.1-3.782-0.047-6.592,0.158l-0.243-0.84c0.632-0.668,0.981-1.37,1.048-2.106
		c0.066-0.735-0.218-2.201-0.853-4.396l-5.559-19.225c1.886-1.37,3.432-2.57,4.641-3.6
		C251.038,77.132,253.058,75.261,256.227,72.281z M252.236,77.623l-0.403,0.372l4.413,15.26l7.059-8.765L252.236,77.623z"/>
	<path d="M315.035,64.399l4.768,25.731c-3.186,2.038-5.466,3.646-6.839,4.826c-1.049,0.882-2.021,1.917-2.918,3.103
		c-3.704-1.401-6.718-2.29-9.043-2.666c-1.764-0.29-3.699-0.287-5.806,0.008l-0.472-0.624c0.735-0.895,1.163-1.662,1.282-2.301
		c0.176-0.839,0.093-2.188-0.251-4.045l-3.5-18.885c3.944-2.177,7.173-4.816,9.688-7.915
		C305.604,63.182,309.968,64.104,315.035,64.399z M303.188,89.757l9.661,2.017l-4.048-21.844c-3.065-0.798-5.221-1.297-6.468-1.498
		c-0.881-0.148-1.926-0.218-3.135-0.21L303.188,89.757z"/>
	<path d="M336.321,45.05l-0.317,5.903l-6.559-0.6l1.125,8.356l5.375-0.724l0.522,3.883l-5.374,0.724l3.132,23.266l4.315,2.419
		l2.41-2.548l0.928,0.863l-7.188,7.569c-3.197-2.205-6.364-3.567-9.499-4.087l-0.32-0.804c0.76-0.644,1.263-1.276,1.509-1.897
		c0.427-1.022,0.551-2.204,0.37-3.545l-2.731-20.283l-3.259,0.438l-0.523-3.883l3.259-0.438l-1.125-8.356
		c3.172-2.828,5.535-5.169,7.085-7.026L336.321,45.05z"/>
	<path d="M360.644,38.551l1.644-0.039c0.4,1.157,1.038,1.97,1.913,2.439c1.134,0.627,2.961,0.91,5.479,0.851
		c1.609-0.038,6.711-0.321,15.308-0.851c5.194-0.333,8.433-0.514,9.716-0.544c3.87-0.091,7.18,0.496,9.928,1.761
		c2.747,1.265,5.005,3.253,6.771,5.964c1.768,2.711,2.987,6.474,3.661,11.287c0.477,3.372,0.99,10.814,1.541,22.326
		c-4.478,2.975-7.915,5.541-10.312,7.697c-7.462-1.9-14.024-2.784-19.688-2.65c-3.846,0.091-7.402,0.638-10.667,1.642
		c-3.265,1.004-6.714,2.57-10.349,4.698l-1.063-1.322c4.729-2.585,8.874-5.215,12.433-7.89c3.559-2.675,5.893-5.046,7.001-7.115
		c1.107-2.068,1.625-4.677,1.55-7.826c-0.027-1.143-0.09-2.833-0.19-5.072c-0.083-1.562-0.145-3.183-0.185-4.862
		c-0.07-2.962,0.045-5.147,0.346-6.555c0.301-1.407,0.97-3.033,2.009-4.879l-0.904,0.021c-2.794,1.699-4.646,3.229-5.554,4.592
		c-0.909,1.363-1.339,3.081-1.29,5.156l0.573,12.408c0.078,3.311-0.844,6.3-2.766,8.97c-1.922,2.669-6.595,6.564-14.017,11.684
		l-1.064-1.357c3.752-2.744,6.216-4.98,7.394-6.708c1.177-1.729,1.744-3.524,1.7-5.387c-0.038-1.606-0.584-2.962-1.639-4.067
		c-1.054-1.105-2.201-1.643-3.439-1.614c-0.631,0.015-1.211,0.204-1.74,0.566c-0.529,0.362-1.236,1.103-2.122,2.22l-1.164-1.11
		c0.748-2.018,1.771-3.507,3.071-4.468c1.3-0.961,2.873-1.464,4.721-1.507c0.538-0.013,1.129,0.032,1.775,0.133
		c0.646,0.102,1.346,0.26,2.1,0.476c-0.079-1.351-0.129-2.528-0.153-3.531c-0.086-3.661,0.583-6.657,2.007-8.989
		c1.425-2.331,4.203-4.794,8.336-7.388c-3.842,0.488-7.163,0.764-9.964,0.83c-2.964,0.07-5.518-0.29-7.661-1.079
		c-1.603-0.615-2.795-1.631-3.575-3.048C361.332,42.997,360.843,41.043,360.644,38.551z M389.203,47.571
		c-0.962,1.724-1.604,3.22-1.924,4.486c-0.426,1.735-0.621,3.349-0.586,4.839l0.604,13.763c0.042,1.771-0.356,3.587-1.192,5.448
		c-0.639,1.391-1.862,3.098-3.668,5.122c3.379-0.622,5.964-0.942,7.754-0.961l1.987-0.012l-0.772-32.737L389.203,47.571z
		 M393.507,60.908c1.449,0.969,2.71,1.628,3.782,1.976c1.072,0.348,2.229,0.507,3.467,0.478s2.391-0.249,3.457-0.659
		s2.312-1.122,3.738-2.136c-0.567-5.236-2.008-8.754-4.318-10.554c-2.311-1.8-5.791-2.646-10.443-2.536L393.507,60.908z
		 M393.779,72.45c1.564-0.947,2.902-1.602,4.014-1.967c1.111-0.364,2.332-0.562,3.661-0.594c1.282-0.03,2.476,0.099,3.579,0.388
		c1.104,0.289,2.435,0.847,3.994,1.673l-0.795-9.465c-1.474,0.944-2.749,1.599-3.828,1.962c-1.078,0.364-2.26,0.561-3.543,0.591
		c-1.238,0.029-2.47-0.14-3.693-0.508c-1.224-0.367-2.429-0.934-3.616-1.699L393.779,72.45z M393.964,80.319
		c2.85,0.167,5.171,0.397,6.963,0.693c1.791,0.296,4.6,0.936,8.426,1.918c-0.036-3.522-0.056-5.341-0.059-5.458
		c-0.006-0.28-0.057-1.398-0.148-3.356c-1.518-0.991-2.846-1.671-3.985-2.041c-1.141-0.369-2.375-0.539-3.704-0.507
		c-1.353,0.032-2.602,0.26-3.746,0.683c-1.145,0.424-2.439,1.166-3.884,2.227L393.964,80.319z"/>
	<path d="M439.116,53.483l9.193,12.055l-16.275,10.073l-0.364,6.357l7.92,3.677l5.697-3.424l0.709,1.092l-11.751,7.248
		c-2.238-1.366-4.089-2.359-5.55-2.98c-1.462-0.621-3.552-1.301-6.271-2.041l0.05-0.873c0.818-0.42,1.381-0.966,1.688-1.638
		c0.307-0.671,0.525-2.148,0.656-4.43l1.143-19.979c2.234-0.667,4.092-1.285,5.573-1.854
		C432.61,56.335,435.138,55.242,439.116,53.483z M433.578,57.196l-0.503,0.217l-0.907,15.859l9.568-5.922L433.578,57.196z"/>
	<path d="M455.507,71.428l12.079,1.213l-0.451,4.49l-12.079-1.213L455.507,71.428z"/>
	<path d="M480.992,57.749l5.421,5.984l-3.113,2.26l-2.683,18.842c-0.283,1.986-0.3,3.303-0.052,3.95
		c0.248,0.648,0.55,0.997,0.904,1.047c0.25,0.036,0.487,0.011,0.713-0.075c0.314-0.12,0.984-0.496,2.011-1.127l0.696,1.194
		l-8.287,4.969c-1.668-1.58-2.685-2.991-3.052-4.233c-0.368-1.242-0.344-3.317,0.07-6.227l2.751-19.327l-2.221-3.02L480.992,57.749z
		 M485.294,46.275l4.398,0.626l-5.845,6.801l-1.386-0.197L485.294,46.275z"/>
	<path d="M496.713,47.906l20.246,20.566c0.53-0.776,1.062-1.338,1.592-1.687c0.531-0.348,1.292-0.628,2.283-0.84l-0.272,1.408
		c-0.578,0.529-0.984,1.033-1.22,1.51c-0.234,0.478-0.503,1.495-0.805,3.051l-4.48,23.115c-3.116,0.536-5.463,1.074-7.037,1.611
		c-1.576,0.539-3.319,1.334-5.231,2.39c-2.363-2.288-4.511-4.034-6.442-5.24c-1.931-1.206-4.07-2.19-6.42-2.955l0.127-0.652
		c0.961-0.55,1.633-1.163,2.013-1.837c0.38-0.675,0.79-2.146,1.229-4.413l3.488-17.998c3.306-0.262,5.715-0.814,7.228-1.656
		l-7.922-7.998L496.713,47.906z M511.153,72.501l-6.155-6.215c-0.724,0.381-1.457,0.701-2.199,0.961l-4.116,21.239l8.254,5.77
		L511.153,72.501z"/>
	<path d="M541.356,69.805l6.72,13.59l-17.9,6.776l-1.572,6.17l7.071,5.123l6.247-2.272l0.486,1.207l-12.919,4.869
		c-1.936-1.769-3.562-3.097-4.878-3.986c-1.316-0.889-3.238-1.956-5.765-3.202l0.216-0.848c0.883-0.256,1.54-0.685,1.97-1.285
		c0.43-0.6,0.927-2.008,1.491-4.223l4.939-19.393c2.32-0.227,4.262-0.479,5.825-0.754C534.426,71.361,537.115,70.771,541.356,69.805
		z M535.21,72.391l-0.535,0.116l-3.921,15.394l10.524-3.984L535.21,72.391z"/>
	<path d="M575.687,80.082l2.912,6.47l4.263-2.069l0.655,1.207c-2.032,0.913-3.335,1.683-3.91,2.308
		c-0.768,0.833-1.43,2.106-1.989,3.82l-5.171,15.857c-0.479,1.469-0.602,2.636-0.366,3.5c0.137,0.562,0.384,0.901,0.74,1.017
		c0.312,0.102,1.188-0.091,2.628-0.578l0.479,1.297l-9.044,3.527c-1.395-1.99-2.18-3.604-2.354-4.843
		c-0.175-1.239,0.126-3.047,0.901-5.426l5.937-18.201l-1.928-4.064l-7.16,2.704l-6.019,18.454l1.72,3.192l-7.428,2.858l-4.347-6.698
		l3.27-1.565l5.535-16.971c0.787-2.414,1.072-4.121,0.857-5.122c-0.146-0.685-0.431-1.096-0.854-1.234
		c-0.446-0.146-1.255,0.069-2.428,0.644l-0.479-1.297l8.977-3.549c1.483,2.096,2.332,3.648,2.545,4.654
		c0.214,1.006,0.076,2.262-0.415,3.767l-0.391,1.199L575.687,80.082z"/>
	<path d="M588.579,88.697l13.506-7.602l0.943,0.374l-3.878,8.85l6.538,2.588l-1.442,3.644l-6.538-2.588l-8.678,21.925l2.574,4.142
		l2.726-0.803l0.428,1.298l-9.439,2.886c-1.449-3.458-3.54-6.242-6.271-8.352l0.258-0.65c1.099-0.243,1.914-0.623,2.446-1.142
		c0.687-0.657,1.33-1.746,1.933-3.266l7.387-18.666l-3.058-1.21L588.579,88.697z"/>
	<path d="M616.676,96.185l3.547,7.253l-3.618,1.308l-7.805,17.358c-0.823,1.83-1.205,3.09-1.146,3.781s0.251,1.11,0.578,1.257
		c0.23,0.104,0.465,0.146,0.706,0.126c0.335-0.028,1.084-0.203,2.245-0.525l0.337,1.34l-9.341,2.475
		c-1.164-1.981-1.749-3.619-1.758-4.914c-0.008-1.295,0.591-3.283,1.796-5.963l8.006-17.805l-1.295-3.517L616.676,96.185z
		 M623.991,86.355l4.053,1.822l-7.503,4.912l-1.276-0.574L623.991,86.355z"/>
	<path d="M649.675,99.8l-3.609,4.681l-5.062-4.214l-3.813,7.52l4.837,2.453l-1.772,3.495l-4.837-2.453L624.8,132.218l2.181,4.44
		l3.431-0.731l0.274,1.238l-10.213,2.155c-1.383-3.63-3.218-6.548-5.505-8.754l0.192-0.844c0.992-0.098,1.765-0.334,2.32-0.706
		c0.932-0.6,1.703-1.503,2.315-2.709l9.257-18.253l-2.933-1.488l1.772-3.495l2.933,1.488l3.813-7.52
		c4.217-0.529,7.491-1.117,9.82-1.767L649.675,99.8z"/>
	<path d="M653.521,114.742l2.854,7.553l-3.725,0.963l-9.395,16.552c-0.99,1.745-1.488,2.964-1.494,3.657
		c-0.007,0.694,0.146,1.129,0.457,1.306c0.22,0.125,0.45,0.189,0.691,0.191c0.336,0.003,1.098-0.101,2.284-0.312l0.21,1.366
		l-9.531,1.59c-0.973-2.081-1.403-3.766-1.29-5.057c0.112-1.29,0.895-3.213,2.346-5.769l9.636-16.978l-0.961-3.623L653.521,114.742z
		 M661.724,105.64l3.864,2.193l-7.929,4.189l-1.218-0.691L661.724,105.64z"/>
	<path d="M675.19,127.853l4.834,9.276l-6.075,2.565l-3.62-7.021l-12.057,18.784l4.132,6.307l4.512-0.251l-0.497,1.46l-10.727,0.681
		c-1.201-2.268-2.308-4.08-3.319-5.436s-2.367-2.843-4.068-4.461l0.454-0.707c0.989-0.03,1.768-0.251,2.337-0.662
		c0.805-0.564,1.73-1.66,2.776-3.29l10.754-16.752C667.792,128.8,671.313,128.635,675.19,127.853z"/>
	<path d="M706.852,152.425l0.707,1.152c-2.188,0.799-3.73,1.51-4.626,2.132c-0.897,0.623-1.882,1.64-2.953,3.052l-9.009,11.873
		c-1.495,1.969-2.29,3.306-2.384,4.01c-0.096,0.704,0.052,1.203,0.441,1.499c0.202,0.154,0.454,0.261,0.755,0.322
		c0.201,0.015,0.841-0.002,1.917-0.05l0.027,1.382l-9.813,0.634c-0.591-2.205-0.793-3.932-0.608-5.183
		c0.185-1.25,0.849-2.687,1.991-4.308l-13.534,0.27c-1.21-5.023-0.854-8.799,1.066-11.331c1.284-1.693,2.837-3.022,4.656-3.987
		c2.396-1.26,5.702-2.344,9.917-3.25l2.084-9.709l0.938-0.427c0.681,0.604,1.196,1.04,1.549,1.307
		c2.188,1.66,4.771,2.259,7.751,1.797c0.752,1.817,1.75,3.573,2.99,5.268s2.288,2.866,3.141,3.513
		c0.39,0.295,0.737,0.452,1.045,0.47S705.858,152.733,706.852,152.425z M689.536,160.717l-4.343-8.284
		c-2.763,1.48-4.794,3.077-6.093,4.788c-2.287,3.014-2.806,6.535-1.556,10.562l6.785-0.206L689.536,160.717z M695.837,152.414
		l-7.311-10.16l-2.058,9.755l3.952,7.542L695.837,152.414z"/>
	<path d="M711.63,159.466l15.294-2.508l0.758,0.674l-6.679,6.982l5.254,4.674l-2.604,2.927l-5.254-4.673l-15.672,17.618l0.997,4.774
		l2.836,0.181l-0.044,1.365l-9.856-0.526c-0.176-3.746-1.184-7.078-3.025-9.996l0.465-0.523c1.116,0.149,2.013,0.071,2.689-0.233
		c0.87-0.382,1.85-1.184,2.936-2.405l13.343-14.999l-2.457-2.186L711.63,159.466z"/>
	<path d="M735.645,176.553l0.699,8.044l-3.847-0.083L718.969,197.9c-1.427,1.411-2.236,2.449-2.43,3.116
		c-0.195,0.666-0.166,1.126,0.086,1.38c0.178,0.18,0.382,0.304,0.613,0.372c0.323,0.095,1.085,0.201,2.284,0.318l-0.168,1.372
		l-9.605-1.053c-0.373-2.267-0.33-4.005,0.129-5.217c0.458-1.211,1.731-2.851,3.821-4.917l13.877-13.73l0.057-3.748L735.645,176.553
		z M746.008,170.015l3.125,3.159l-8.768,1.883l-0.984-0.995L746.008,170.015z"/>
	<path d="M758.585,210.121l-20.132,16.719c-3.333-1.786-5.85-2.991-7.55-3.614c-1.282-0.484-2.659-0.829-4.132-1.032
		c-0.585-3.917-1.28-6.981-2.088-9.194c-0.607-1.681-1.555-3.369-2.84-5.063l0.314-0.716c1.14,0.205,2.018,0.204,2.634-0.004
		c0.818-0.255,1.955-0.987,3.408-2.194l14.775-12.271c3.825,2.38,7.705,3.911,11.637,4.593
		C755.045,201.296,756.368,205.555,758.585,210.121z M730.67,212.157l2.954,9.417l17.09-14.194c-0.799-3.065-1.416-5.19-1.85-6.376
		c-0.301-0.842-0.75-1.788-1.347-2.838L730.67,212.157z"/>
	<path d="M779.814,232.36l-1.85,6.85l4.607,1.103l-0.259,1.349c-2.15-0.583-3.646-0.814-4.487-0.695
		c-1.121,0.157-2.441,0.722-3.96,1.693l-14.055,8.982c-1.301,0.832-2.136,1.657-2.502,2.475c-0.251,0.521-0.274,0.94-0.072,1.256
		c0.177,0.276,0.977,0.683,2.398,1.219l-0.452,1.306l-9.229-3.007c0.183-2.423,0.599-4.169,1.25-5.238
		c0.65-1.069,2.029-2.277,4.138-3.624l16.131-10.31l1.087-4.365l-7.251-2.449l-16.355,10.453l-0.694,3.558l-7.556-2.5l0.886-7.936
		l3.521,0.864l15.042-9.614c2.139-1.367,3.442-2.506,3.91-3.417c0.321-0.623,0.362-1.121,0.123-1.496
		c-0.253-0.395-1.015-0.742-2.285-1.042l0.452-1.306l9.191,2.948c-0.183,2.561-0.51,4.299-0.983,5.212
		c-0.473,0.914-1.376,1.797-2.709,2.649l-1.062,0.679L779.814,232.36z"/>
</g>
<g>
	<path d="M324.368,343.27c0-0.306,0.288-0.432,0.594-0.432c0.288,0,0.594,0.126,0.594,0.432v12.262c0,0.307-0.306,0.469-0.594,0.469
		c-0.306,0-0.594-0.162-0.594-0.469V343.27z"/>
	<path d="M334.029,352.525c0-3.998-5.978-2.053-5.978-6.446c0-2.629,2.143-3.276,3.817-3.276c1.35,0,3.025,0.449,3.025,1.098
		c0,0.234-0.198,0.666-0.522,0.666c-0.342,0-0.936-0.684-2.521-0.684c-1.333,0-2.611,0.486-2.611,2.088
		c0,3.35,5.978,1.459,5.978,6.446c0,2.557-1.584,3.709-3.799,3.709c-2.305,0-3.691-1.296-3.691-1.944
		c0-0.288,0.271-0.666,0.541-0.666c0.468,0,0.828,1.494,3.079,1.494C333.021,355.01,334.029,354.164,334.029,352.525z"/>
	<path d="M347.331,349.68h-5.204v5.852c0,0.307-0.306,0.469-0.594,0.469c-0.306,0-0.594-0.162-0.594-0.469V343.27
		c0-0.306,0.288-0.432,0.594-0.432c0.288,0,0.594,0.126,0.594,0.432v5.385h5.204v-5.385c0-0.306,0.288-0.432,0.594-0.432
		c0.288,0,0.594,0.126,0.594,0.432v12.262c0,0.307-0.306,0.469-0.594,0.469c-0.306,0-0.594-0.162-0.594-0.469V349.68z"/>
	<path d="M352.342,348.888h2.827c0.288,0,0.45,0.253,0.45,0.54c0,0.234-0.126,0.486-0.45,0.486h-2.827v4.988h5.762
		c0.288,0,0.45,0.27,0.45,0.558c0,0.252-0.126,0.54-0.45,0.54h-6.41c-0.27,0-0.54-0.162-0.54-0.469v-12.243
		c0-0.306,0.271-0.45,0.54-0.45h6.41c0.324,0,0.45,0.271,0.45,0.522c0,0.306-0.162,0.576-0.45,0.576h-5.762V348.888z"/>
	<path d="M360.607,343.27c0-0.233,0.181-0.414,0.45-0.432h3.188c2.106,0,3.889,0.847,3.889,3.547c0,2.232-1.242,3.205-2.809,3.476
		l2.772,5.329c0.055,0.072,0.072,0.162,0.072,0.234c0,0.307-0.342,0.612-0.685,0.612c-0.288,0-0.485-0.343-0.63-0.63l-2.772-5.402
		h-2.287v5.527c0,0.307-0.306,0.469-0.594,0.469c-0.307,0-0.595-0.162-0.595-0.469V343.27z M361.796,343.937v5.042h2.449
		c1.603,0,2.7-0.721,2.7-2.539c0-1.801-1.098-2.503-2.7-2.503H361.796z"/>
	<path d="M371.517,348.888h2.827c0.288,0,0.45,0.253,0.45,0.54c0,0.234-0.126,0.486-0.45,0.486h-2.827v4.988h5.762
		c0.288,0,0.45,0.27,0.45,0.558c0,0.252-0.126,0.54-0.45,0.54h-6.41c-0.27,0-0.54-0.162-0.54-0.469v-12.243
		c0-0.306,0.271-0.45,0.54-0.45h6.41c0.324,0,0.45,0.271,0.45,0.522c0,0.306-0.162,0.576-0.45,0.576h-5.762V348.888z"/>
	<path d="M379.782,343.288c0-0.306,0.271-0.45,0.54-0.45h2.953c2.017,0,3.673,0.522,3.673,3.061c0,1.514-0.612,2.575-1.53,2.972
		c1.099,0.45,1.854,1.261,1.854,3.097v0.324c0,2.736-1.566,3.709-3.564,3.709h-3.386c-0.342,0-0.54-0.216-0.54-0.45V343.288z
		 M380.953,348.348h2.358c1.656,0,2.448-0.612,2.448-2.322c0-1.656-1.044-2.089-2.521-2.089h-2.286V348.348z M383.563,354.902
		c1.566,0,2.521-0.811,2.521-2.666v-0.306c0-1.872-0.954-2.557-2.521-2.557h-2.61v5.528H383.563z"/>
	<path d="M392.432,350.959c0-0.055,0-0.09-0.018-0.145l-3.727-7.148c-0.072-0.126-0.091-0.252-0.091-0.324
		c0-0.306,0.36-0.504,0.648-0.504c0.198,0,0.342,0.108,0.468,0.36l3.313,6.571l3.331-6.571c0.126-0.252,0.288-0.36,0.468-0.36
		c0.288,0,0.648,0.198,0.648,0.504c0,0.072-0.018,0.198-0.072,0.324l-3.745,7.148c-0.018,0.055-0.036,0.09-0.036,0.145v4.572
		c0,0.307-0.288,0.469-0.594,0.469c-0.288,0-0.595-0.162-0.595-0.469V350.959z"/>
	<path d="M401.79,355.496c0-0.036,0-0.09,0.019-0.127l3.763-12.225c0.09-0.289,0.396-0.414,0.702-0.414
		c0.324,0,0.63,0.144,0.721,0.414l3.745,12.225c0,0.037,0.018,0.072,0.018,0.109c0,0.287-0.396,0.521-0.72,0.521
		c-0.198,0-0.379-0.09-0.45-0.307l-0.829-2.772h-4.987l-0.828,2.772c-0.054,0.217-0.252,0.307-0.468,0.307
		C402.168,356,401.79,355.802,401.79,355.496z M408.452,351.895l-2.179-7.256l-2.196,7.256H408.452z"/>
	<path d="M420.49,355.676c-0.091,0.288-0.396,0.432-0.721,0.432c-0.306,0-0.63-0.125-0.702-0.432l-1.711-6.355l-1.71,6.355
		c-0.072,0.288-0.378,0.432-0.702,0.432s-0.631-0.125-0.721-0.432l-3.547-12.207c-0.018-0.055-0.018-0.09-0.018-0.145
		c0-0.288,0.359-0.486,0.684-0.486c0.216,0,0.414,0.108,0.469,0.307l3.114,11.055l1.801-6.716c0.072-0.306,0.342-0.414,0.63-0.414
		s0.522,0.108,0.612,0.414l1.801,6.716l3.115-11.055c0.054-0.198,0.252-0.307,0.468-0.307c0.324,0,0.685,0.198,0.685,0.486
		c0,0.055,0,0.09-0.019,0.145L420.49,355.676z"/>
	<path d="M423.955,355.496c0-0.036,0-0.09,0.019-0.127l3.763-12.225c0.09-0.289,0.396-0.414,0.702-0.414
		c0.324,0,0.63,0.144,0.721,0.414l3.745,12.225c0,0.037,0.018,0.072,0.018,0.109c0,0.287-0.396,0.521-0.72,0.521
		c-0.198,0-0.379-0.09-0.45-0.307l-0.828-2.772h-4.988l-0.828,2.772c-0.054,0.217-0.252,0.307-0.468,0.307
		C424.333,356,423.955,355.802,423.955,355.496z M430.617,351.895l-2.179-7.256l-2.196,7.256H430.617z"/>
	<path d="M434.975,343.27c0-0.233,0.181-0.414,0.45-0.432h3.188c2.106,0,3.889,0.847,3.889,3.547c0,2.232-1.242,3.205-2.809,3.476
		l2.772,5.329c0.055,0.072,0.072,0.162,0.072,0.234c0,0.307-0.342,0.612-0.685,0.612c-0.288,0-0.485-0.343-0.63-0.63l-2.772-5.402
		h-2.287v5.527c0,0.307-0.306,0.469-0.594,0.469c-0.307,0-0.595-0.162-0.595-0.469V343.27z M436.163,343.937v5.042h2.449
		c1.603,0,2.7-0.721,2.7-2.539c0-1.801-1.098-2.503-2.7-2.503H436.163z"/>
	<path d="M448.424,342.838c2.106,0,3.763,1.045,3.763,3.836v5.473c0,2.809-1.656,3.854-3.763,3.854h-3.188
		c-0.324,0-0.54-0.216-0.54-0.45v-12.28c0-0.233,0.216-0.432,0.54-0.432H448.424z M445.885,343.937v10.966h2.539
		c1.603,0,2.574-0.883,2.574-2.756v-5.473c0-1.873-0.972-2.737-2.574-2.737H445.885z"/>
	<path d="M455.895,348.888h2.827c0.288,0,0.45,0.253,0.45,0.54c0,0.234-0.126,0.486-0.45,0.486h-2.827v4.988h5.762
		c0.288,0,0.45,0.27,0.45,0.558c0,0.252-0.126,0.54-0.45,0.54h-6.41c-0.27,0-0.54-0.162-0.54-0.469v-12.243
		c0-0.306,0.271-0.45,0.54-0.45h6.41c0.324,0,0.45,0.271,0.45,0.522c0,0.306-0.162,0.576-0.45,0.576h-5.762V348.888z"/>
	<path d="M467.887,342.838c2.106,0,3.763,1.045,3.763,3.836v5.473c0,2.809-1.656,3.854-3.763,3.854h-3.188
		c-0.324,0-0.54-0.216-0.54-0.45v-12.28c0-0.233,0.216-0.432,0.54-0.432H467.887z M465.348,343.937v10.966h2.539
		c1.603,0,2.574-0.883,2.574-2.756v-5.473c0-1.873-0.972-2.737-2.574-2.737H465.348z"/>
	<path d="M484.412,342.838c0.306,0,0.45,0.271,0.45,0.541c0,0.287-0.145,0.576-0.45,0.576h-3.007v11.576
		c0,0.307-0.307,0.469-0.595,0.469c-0.306,0-0.594-0.162-0.594-0.469v-11.576h-3.025c-0.287,0-0.449-0.271-0.449-0.559
		c0-0.271,0.144-0.559,0.449-0.559H484.412z"/>
	<path d="M486.374,352.255v-5.581c0-2.791,1.639-3.836,3.745-3.836s3.745,1.045,3.745,3.836v5.581c0,2.809-1.639,3.853-3.745,3.853
		S486.374,355.063,486.374,352.255z M492.676,346.674c0-1.873-0.954-2.737-2.557-2.737s-2.557,0.864-2.557,2.737v5.581
		c0,1.891,0.954,2.755,2.557,2.755s2.557-0.864,2.557-2.755V346.674z"/>
</g>
<g>
	<path d="M209.175,402.846l-0.586-0.879c3.652-2.461,8.447-4.346,14.385-5.654c6.855-7.48,12.754-13.018,17.695-16.611l0.439,0.791
		c-5.352,4.453-9.473,9.326-12.363,14.619h0.703c1.035,0,1.894-0.195,2.578-0.586c0.195-0.176,0.479-0.449,0.85-0.82
		c2.031-1.914,3.447-2.842,4.248-2.783h0.146l0.352,0.234v0.176c0,0.547-0.723,1.348-2.168,2.402
		c-1.289,0.957-2.285,1.543-2.988,1.758c-1.016,1.484-1.758,3.398-2.227,5.742l-2.051,0.674c0.391-2.031,1.27-4.014,2.637-5.947
		l-2.637,0.586c-7.402,13.262-16.748,19.893-28.037,19.893c-5.508,0-8.262-1.631-8.262-4.893c0-1.172,0.43-2.246,1.289-3.223
		s1.875-1.465,3.047-1.465c1.562,0,2.344,0.762,2.344,2.285c0,0.566-0.293,1.045-0.879,1.436c-0.508,0.332-1.055,0.498-1.641,0.498
		c-0.352,0-0.767-0.122-1.245-0.366c-0.479-0.244-0.747-0.366-0.806-0.366c-0.645,0-0.967,0.508-0.967,1.523
		c0,1.25,0.898,2.197,2.695,2.842c1.289,0.469,2.714,0.703,4.277,0.703c4.941,0,9.639-2.666,14.092-7.998
		c3.516-4.199,6.171-7.559,7.969-10.078C216.635,398.959,212.339,400.795,209.175,402.846z M255.376,376.098
		c-3.321,2.168-6.983,3.252-10.986,3.252c-3.614,0-8.555-0.664-14.824-1.992c-4.16-0.879-6.992-1.318-8.496-1.318
		c-3.594,0-7.061,1.143-10.4,3.428c-3.691,2.52-5.537,5.498-5.537,8.936c0,3.613,2.158,5.42,6.475,5.42
		c6.27,0,11.884-3.506,16.846-10.518c0.156-0.234,0.371-0.596,0.645-1.084h1.084c-1.895,3.77-4.395,6.787-7.5,9.053
		c-3.379,2.461-7.051,3.691-11.016,3.691c-2.285,0-4.131-0.547-5.537-1.641c-1.523-1.211-2.285-2.93-2.285-5.156
		c0-4.375,2.597-7.92,7.793-10.635c4.316-2.285,8.877-3.428,13.682-3.428c2.676,0,6.636,0.454,11.88,1.362s9.204,1.362,11.88,1.362
		c1.562,0,3.545-0.459,5.947-1.377L255.376,376.098z"/>
	<path d="M242.387,396.225c0-2.949,1.27-5.615,3.809-7.998c2.5-2.324,5.234-3.486,8.203-3.486c3.242,0,4.863,1.641,4.863,4.922
		c0,1.934-1.299,3.77-3.896,5.508c-0.684,0.469-2.823,1.592-6.416,3.369c0.801,1.934,1.201,3.369,1.201,4.307
		c0,3.262-1.709,6.367-5.127,9.316c-3.281,2.832-6.573,4.248-9.873,4.248c-1.641,0-3.008-0.493-4.102-1.479
		c-1.094-0.986-1.641-2.29-1.641-3.911c0-2.617,1.67-5.098,5.01-7.441c2.402-1.68,5.283-3.076,8.643-4.189
		C242.611,398.588,242.387,397.533,242.387,396.225z M232.338,411.166c0,1.23,0.366,2.227,1.099,2.988s1.714,1.143,2.944,1.143
		c2.187,0,4.287-0.869,6.299-2.607c2.09-1.797,3.135-3.779,3.135-5.947c0-1.699-0.801-3.857-2.402-6.475
		c-2.832,0.938-5.264,2.246-7.295,3.926C233.598,406.322,232.338,408.646,232.338,411.166z M256.859,389.252
		c0-1.035-0.278-1.895-0.835-2.578s-1.343-1.025-2.358-1.025c-1.816,0-3.477,0.605-4.98,1.816c-1.602,1.309-2.402,2.852-2.402,4.629
		c0,1.504,0.664,3.33,1.992,5.479C253.998,395.307,256.859,392.533,256.859,389.252z"/>
	<path d="M257.898,409.818c1.68,0,2.52,0.898,2.52,2.695c0,0.918-0.425,1.768-1.274,2.549s-1.733,1.172-2.651,1.172
		c-0.762,0-1.402-0.259-1.919-0.776c-0.518-0.518-0.776-1.157-0.776-1.919c0-1.094,0.41-1.987,1.23-2.681
		S256.804,409.818,257.898,409.818z M263.348,400.414c0-0.918,0.415-1.763,1.245-2.534c0.83-0.771,1.704-1.157,2.622-1.157
		c0.645,0,1.26,0.264,1.846,0.791s0.879,1.113,0.879,1.758c0,0.996-0.381,1.895-1.143,2.695s-1.641,1.201-2.637,1.201
		C264.285,403.168,263.348,402.25,263.348,400.414z"/>
	<path d="M275.717,395.492c0-2.617,0.576-4.824,1.729-6.621c1.367-2.07,3.291-3.105,5.771-3.105c4.512,0,7.871,3.281,10.078,9.844
		c6.602-7.012,10.557-11.133,11.865-12.363c5.937-5.586,10.459-8.379,13.564-8.379c0.156,0,0.527,0.029,1.113,0.088l0.41,0.234
		l-0.059,0.264c-0.684,0.703-1.417,1.66-2.197,2.871c-0.645,1.016-1.289,2.03-1.934,3.046c-4.787,6.991-11.43,17.234-19.929,30.729
		c3.03-1.028,5.21-2.472,6.54-4.331l0.645,0.623c-0.644,1.226-1.785,2.313-3.423,3.262c-1.463,0.85-2.955,1.384-4.476,1.602
		l-1.74,2.57h-5.59l1.75-2.639c-2.246-0.898-3.486-1.405-3.72-1.522c-1.348-0.605-2.49-1.279-3.427-2.021
		c-0.176-0.137-0.439-0.342-0.791-0.615c-5.565,5.039-10.564,7.559-14.998,7.559c-1.055,0-1.953-0.332-2.695-0.996
		c-0.801-0.684-1.201-1.543-1.201-2.578c0-1.23,0.371-2.383,1.113-3.457c0.801-1.191,1.787-1.787,2.959-1.787
		c1.25,0,1.875,0.625,1.875,1.875c0,1.211-0.605,1.953-1.816,2.227c-0.137-0.02-0.444-0.127-0.923-0.322
		c-0.479-0.195-0.747-0.293-0.806-0.293c-0.918,0-1.377,0.645-1.377,1.934c0,0.703,0.391,1.279,1.172,1.729
		c0.664,0.41,1.367,0.615,2.109,0.615c2.148,0,4.589-0.859,7.324-2.578c1.191-0.742,3.311-2.324,6.357-4.746
		C277.475,403.949,275.717,399.711,275.717,395.492z M292.417,396.605c-0.508-2.383-1.494-4.463-2.959-6.24
		c-1.699-2.07-3.662-3.105-5.889-3.105c-2.07,0-3.711,0.957-4.922,2.871c-1.055,1.641-1.582,3.555-1.582,5.742
		c0,4.219,1.65,8.047,4.951,11.484C286.215,403.412,289.682,399.828,292.417,396.605z M290.424,411.928
		c1.66-3.457,2.49-7.227,2.49-11.309c0-0.977-0.088-1.826-0.264-2.549l-9.844,10.137c1.621,1.309,2.783,2.139,3.486,2.49
		C287.153,411.127,288.53,411.537,290.424,411.928z M318.432,376.156l-0.176-0.234h-0.352c-2.246,0-6.445,2.93-12.598,8.789
		c-1.816,1.758-5.713,5.791-11.689,12.1c0.117,1.621,0.176,3.115,0.176,4.482c0,0.781-0.293,3.145-0.879,7.09
		c5.56-7.734,12.173-16.152,19.84-25.254c0.878-1.016,2.185-2.559,3.921-4.629C317.125,377.992,317.71,377.211,318.432,376.156z"/>
	<path d="M316.105,404.018c-2.773,0-4.16-1.523-4.16-4.57c0-3.867,2.011-7.344,6.035-10.43c3.769-2.871,7.646-4.307,11.631-4.307
		c1.211,0,2.28,0.405,3.208,1.216c0.927,0.811,1.392,1.812,1.392,3.003c0,3.438-1.582,7.383-4.746,11.836
		c-3.008,4.219-6.631,7.822-10.869,10.811c-4.453,3.145-8.389,4.717-11.807,4.717c-0.996,0-1.836-0.225-2.52-0.674
		c-0.82-0.527-1.23-1.26-1.23-2.197c0-1.758,0.703-2.637,2.109-2.637c0.391,0,0.762,0.171,1.113,0.513s0.527,0.708,0.527,1.099
		c0,0.332-0.205,0.684-0.615,1.055s-0.801,0.557-1.172,0.557c-0.098,0-0.186-0.02-0.264-0.059l-0.117,0.315
		c-0.02,0.747,0.479,1.12,1.494,1.12c1.797,0,3.545-0.556,5.244-1.667c0.938-0.624,2.354-1.833,4.248-3.626
		c4.609-4.367,7.686-7.993,9.229-10.879C320.987,402.416,318.078,404.018,316.105,404.018z M314.582,401.822
		c0,0.858,0.498,1.287,1.494,1.287c2.324,0,5.576-2.003,9.756-6.011c4.179-4.007,6.27-7.151,6.27-9.433
		c0-1.423-0.645-2.135-1.934-2.135c-2.188,0-5.332,2.165-9.434,6.493C316.632,396.354,314.582,399.619,314.582,401.822z"/>
	<path d="M333.947,409.818c1.68,0,2.52,0.898,2.52,2.695c0,0.918-0.425,1.768-1.274,2.549s-1.733,1.172-2.651,1.172
		c-0.762,0-1.402-0.259-1.919-0.776c-0.518-0.518-0.776-1.157-0.776-1.919c0-1.094,0.41-1.987,1.23-2.681
		S332.853,409.818,333.947,409.818z M339.396,400.414c0-0.918,0.415-1.763,1.245-2.534c0.83-0.771,1.704-1.157,2.622-1.157
		c0.645,0,1.26,0.264,1.846,0.791s0.879,1.113,0.879,1.758c0,0.996-0.381,1.895-1.143,2.695s-1.641,1.201-2.637,1.201
		C340.333,403.168,339.396,402.25,339.396,400.414z"/>
	<path d="M384.312,383.598c-2.871-5.371-8.135-8.057-15.791-8.057c-5.391,0-10.469,1.482-15.234,4.447
		c-5.449,3.375-8.174,7.589-8.174,12.641c0,2.049,0.898,3.697,2.695,4.945c1.582,1.112,3.438,1.668,5.566,1.668
		c5.801,0,10.869-2.642,15.205-7.925c1.309-1.56,2.676-4.172,4.102-7.837h0.762l-0.41,1.377c-1.406,4.648-3.721,8.32-6.943,11.016
		c-3.418,2.852-7.49,4.277-12.217,4.277c-2.871,0-5.196-0.684-6.973-2.051c-1.992-1.523-2.988-3.672-2.988-6.445
		c0-5.43,2.666-9.824,7.998-13.184c4.629-2.91,9.834-4.365,15.615-4.365c8.555,0,14.512,2.949,17.871,8.848
		c1.934-1.621,4.717-3.105,8.35-4.453v0.791c-2.754,1.191-5.342,3.008-7.764,5.449c0.566,2.168,0.85,3.945,0.85,5.332
		c0,6.562-2.227,12.529-6.68,17.9c-4.688,5.664-10.244,8.496-16.67,8.496c-2.969,0-6.064-0.605-9.287-1.816
		c-4.238,1.211-7.715,1.816-10.43,1.816c-4.882,0-7.324-0.977-7.324-2.93c0-1.055,0.86-1.836,2.578-2.344
		c1.152-0.332,2.451-0.498,3.896-0.498c1.445,0,3.271,0.264,5.479,0.791c2.207,0.527,3.984,1.113,5.332,1.758
		c4.902-2.871,10.498-8.311,16.787-16.318C374.38,392.006,378.979,387.562,384.312,383.598z M342.593,411.664
		c-0.898,0-1.827,0.126-2.783,0.378c-1.289,0.349-1.934,0.844-1.934,1.482c0,1.357,1.953,2.036,5.859,2.036
		c2.578,0,5.547-0.581,8.906-1.744C349.048,412.382,345.698,411.664,342.593,411.664z M363.276,415.561
		c6.055,0,11.416-2.663,16.084-7.99c4.492-5.132,6.738-10.771,6.738-16.917c0-1.405-0.254-3.132-0.762-5.181
		c-1.523,1.756-3.701,4.468-6.533,8.137c-4.258,6.186-7.432,10.303-9.521,12.351c-3.379,3.338-7.832,6.03-13.359,8.078
		C358.286,415.054,360.737,415.561,363.276,415.561z"/>
	<path d="M411.267,384.682c2.324,0,3.486,1.162,3.486,3.486c0,2.793-1.484,6.494-4.453,11.104c-2.891,4.453-6.23,8.33-10.02,11.631
		c-4.121,3.594-7.588,5.391-10.4,5.391c-3.066,0-4.6-1.66-4.6-4.98c0-3.477,1.445-7.363,4.336-11.66
		c2.773-4.121,6.152-7.607,10.137-10.459C403.952,386.186,407.79,384.682,411.267,384.682z M390.466,415.531
		c0.977,0,2.695-0.781,5.156-2.344c3.32-2.129,7.051-5.859,11.191-11.191c4.531-5.879,6.797-10.449,6.797-13.711
		c0-1.758-0.82-2.637-2.461-2.637c-2.09,0-5.068,1.924-8.936,5.771c-3.516,3.516-6.719,7.52-9.609,12.012
		c-2.988,4.648-4.482,8.037-4.482,10.166C388.122,414.887,388.903,415.531,390.466,415.531z"/>
	<path d="M413.508,409.818c1.68,0,2.52,0.898,2.52,2.695c0,0.918-0.425,1.768-1.274,2.549s-1.733,1.172-2.651,1.172
		c-0.762,0-1.401-0.259-1.919-0.776s-0.776-1.157-0.776-1.919c0-1.094,0.41-1.987,1.23-2.681S412.414,409.818,413.508,409.818z
		 M418.957,400.414c0-0.918,0.415-1.763,1.245-2.534s1.704-1.157,2.622-1.157c0.645,0,1.26,0.264,1.846,0.791
		s0.879,1.113,0.879,1.758c0,0.996-0.381,1.895-1.143,2.695s-1.641,1.201-2.637,1.201
		C419.895,403.168,418.957,402.25,418.957,400.414z"/>
	<path d="M445.527,385.473h7.324c-0.371,0.352-1.025,0.908-1.963,1.67c-3.359,2.676-7.9,6.025-13.623,10.049
		c-7.148,5-11.748,8.271-13.799,9.814c1.719-0.195,3.779-0.293,6.182-0.293c1.152,0,3.047,0.117,5.684,0.352
		c2.812-2.422,5.693-5.107,8.643-8.057h1.201c-2.285,2.656-4.385,5.479-6.299,8.467l1.084,0.059c1.133,0,2.354-0.176,3.662-0.527
		v0.967c-1.367,0.43-3.174,0.586-5.42,0.469l-4.365,7.324h-7.031l7.676-7.734c-1.875-0.293-4.248-0.439-7.119-0.439
		c-2.363,0-4.727,0.498-7.09,1.494l-0.469-0.703C427.52,402.875,436.094,395.238,445.527,385.473z"/>
	<path d="M459.629,402.846l-0.586-0.879c3.652-2.461,8.447-4.346,14.385-5.654c6.855-7.48,12.754-13.018,17.695-16.611l0.439,0.791
		c-5.352,4.453-9.473,9.326-12.363,14.619h0.703c1.035,0,1.895-0.195,2.578-0.586c0.195-0.176,0.479-0.449,0.85-0.82
		c2.031-1.914,3.447-2.842,4.248-2.783h0.146l0.352,0.234v0.176c0,0.547-0.723,1.348-2.168,2.402
		c-1.289,0.957-2.285,1.543-2.988,1.758c-1.016,1.484-1.758,3.398-2.227,5.742l-2.051,0.674c0.391-2.031,1.27-4.014,2.637-5.947
		l-2.637,0.586c-7.402,13.262-16.748,19.893-28.037,19.893c-5.508,0-8.262-1.631-8.262-4.893c0-1.172,0.43-2.246,1.289-3.223
		s1.875-1.465,3.047-1.465c1.562,0,2.344,0.762,2.344,2.285c0,0.566-0.293,1.045-0.879,1.436c-0.508,0.332-1.055,0.498-1.641,0.498
		c-0.352,0-0.767-0.122-1.245-0.366s-0.747-0.366-0.806-0.366c-0.645,0-0.967,0.508-0.967,1.523c0,1.25,0.898,2.197,2.695,2.842
		c1.289,0.469,2.715,0.703,4.277,0.703c4.941,0,9.639-2.666,14.092-7.998c3.516-4.199,6.172-7.559,7.969-10.078
		C467.09,398.959,462.793,400.795,459.629,402.846z M505.83,376.098c-3.32,2.168-6.982,3.252-10.986,3.252
		c-3.613,0-8.555-0.664-14.824-1.992c-4.16-0.879-6.992-1.318-8.496-1.318c-3.594,0-7.061,1.143-10.4,3.428
		c-3.691,2.52-5.537,5.498-5.537,8.936c0,3.613,2.158,5.42,6.475,5.42c6.27,0,11.885-3.506,16.846-10.518
		c0.156-0.234,0.371-0.596,0.645-1.084h1.084c-1.895,3.77-4.395,6.787-7.5,9.053c-3.379,2.461-7.051,3.691-11.016,3.691
		c-2.285,0-4.131-0.547-5.537-1.641c-1.523-1.211-2.285-2.93-2.285-5.156c0-4.375,2.598-7.92,7.793-10.635
		c4.316-2.285,8.877-3.428,13.682-3.428c2.676,0,6.636,0.454,11.88,1.362s9.204,1.362,11.88,1.362c1.562,0,3.545-0.459,5.947-1.377
		L505.83,376.098z"/>
	<path d="M484.998,409.818c1.68,0,2.52,0.898,2.52,2.695c0,0.918-0.425,1.768-1.274,2.549s-1.733,1.172-2.651,1.172
		c-0.762,0-1.401-0.259-1.919-0.776s-0.776-1.157-0.776-1.919c0-1.094,0.41-1.987,1.23-2.681S483.904,409.818,484.998,409.818z
		 M490.447,400.414c0-0.918,0.415-1.763,1.245-2.534s1.704-1.157,2.622-1.157c0.645,0,1.26,0.264,1.846,0.791
		s0.879,1.113,0.879,1.758c0,0.996-0.381,1.895-1.143,2.695s-1.641,1.201-2.637,1.201
		C491.385,403.168,490.447,402.25,490.447,400.414z"/>
	<path d="M498.472,400.707l11.865-15.439c1.68,0.566,3.359,0.85,5.039,0.85c2.07,0,3.994-0.518,5.771-1.553l0.469,0.703
		c-3.262,2.852-6.279,4.277-9.053,4.277c-1.172,0-2.393-0.166-3.662-0.498c-2.402,2.852-4.443,5.498-6.123,7.939
		c2.832-1.934,5.166-2.9,7.002-2.9c1.367,0,2.549,0.493,3.545,1.479s1.494,2.163,1.494,3.53c0,4.492-2.432,8.555-7.295,12.188
		c-4.531,3.379-9.121,5.068-13.77,5.068c-2.734,0-4.102-1.26-4.102-3.779c0-0.508,0.273-0.996,0.82-1.465s1.074-0.703,1.582-0.703
		c0.371,0,0.693,0.234,0.967,0.703c0.234,0.391,0.352,0.781,0.352,1.172c0,0.508-0.322,0.85-0.967,1.025
		c-0.742,0.215-1.162,0.41-1.26,0.586c0.117,1.094,0.82,1.641,2.109,1.641c3.906,0,8.145-2.705,12.715-8.115
		c1.152-1.348,2.275-2.988,3.369-4.922c1.348-2.363,2.021-4.16,2.021-5.391c0-1.328-0.576-1.992-1.729-1.992
		c-2.91,0-6.396,2.021-10.459,6.064L498.472,400.707z"/>
	<path d="M559.611,383.598c-2.871-5.371-8.135-8.057-15.791-8.057c-5.391,0-10.469,1.482-15.234,4.447
		c-5.449,3.375-8.174,7.589-8.174,12.641c0,2.049,0.898,3.697,2.695,4.945c1.582,1.112,3.438,1.668,5.566,1.668
		c5.801,0,10.869-2.642,15.205-7.925c1.309-1.56,2.676-4.172,4.102-7.837h0.762l-0.41,1.377c-1.406,4.648-3.721,8.32-6.943,11.016
		c-3.418,2.852-7.49,4.277-12.217,4.277c-2.871,0-5.195-0.684-6.973-2.051c-1.992-1.523-2.988-3.672-2.988-6.445
		c0-5.43,2.666-9.824,7.998-13.184c4.629-2.91,9.834-4.365,15.615-4.365c8.555,0,14.512,2.949,17.871,8.848
		c1.934-1.621,4.717-3.105,8.35-4.453v0.791c-2.754,1.191-5.342,3.008-7.764,5.449c0.566,2.168,0.85,3.945,0.85,5.332
		c0,6.562-2.227,12.529-6.68,17.9c-4.688,5.664-10.244,8.496-16.67,8.496c-2.969,0-6.064-0.605-9.287-1.816
		c-4.238,1.211-7.715,1.816-10.43,1.816c-4.883,0-7.324-0.977-7.324-2.93c0-1.055,0.859-1.836,2.578-2.344
		c1.152-0.332,2.451-0.498,3.896-0.498s3.271,0.264,5.479,0.791s3.984,1.113,5.332,1.758c4.902-2.871,10.498-8.311,16.787-16.318
		C549.68,392.006,554.279,387.562,559.611,383.598z M517.893,411.664c-0.898,0-1.826,0.126-2.783,0.378
		c-1.289,0.349-1.934,0.844-1.934,1.482c0,1.357,1.953,2.036,5.859,2.036c2.578,0,5.547-0.581,8.906-1.744
		C524.348,412.382,520.998,411.664,517.893,411.664z M538.576,415.561c6.055,0,11.416-2.663,16.084-7.99
		c4.492-5.132,6.738-10.771,6.738-16.917c0-1.405-0.254-3.132-0.762-5.181c-1.523,1.756-3.701,4.468-6.533,8.137
		c-4.258,6.186-7.432,10.303-9.521,12.351c-3.379,3.338-7.832,6.03-13.359,8.078C533.586,415.054,536.037,415.561,538.576,415.561z"
		/>
	<path d="M565.417,409.818c1.68,0,2.52,0.898,2.52,2.695c0,0.918-0.425,1.768-1.274,2.549s-1.733,1.172-2.651,1.172
		c-0.762,0-1.401-0.259-1.919-0.776s-0.776-1.157-0.776-1.919c0-1.094,0.41-1.987,1.23-2.681S564.323,409.818,565.417,409.818z
		 M570.866,400.414c0-0.918,0.415-1.763,1.245-2.534s1.704-1.157,2.622-1.157c0.645,0,1.26,0.264,1.846,0.791
		s0.879,1.113,0.879,1.758c0,0.996-0.381,1.895-1.143,2.695s-1.641,1.201-2.637,1.201
		C571.804,403.168,570.866,402.25,570.866,400.414z"/>
	<path d="M599.022,386.967c-3.184,1.621-5.537,2.432-7.061,2.432c-0.938,0-2.168-0.356-3.691-1.069s-2.539-1.069-3.047-1.069
		c-1.191,0-2.451,0.898-3.779,2.695h-1.143l6.475-7.852h1.318l-3.018,3.955c1.68-0.684,3.438-1.025,5.273-1.025
		c0.801,0,1.953,0.234,3.457,0.703s2.646,0.703,3.428,0.703c0.898,0,1.777-0.303,2.637-0.908c0.742-0.605,1.475-1.211,2.197-1.816
		h0.117c0.176,0,0.361,0.098,0.557,0.293c-8.359,8.828-18.643,21.211-30.85,37.148h-6.855c6.641-7.5,14.326-15.42,23.057-23.76
		C590.536,395.111,594.179,391.635,599.022,386.967z"/>
	<path d="M597.253,400.707l11.865-15.439c1.68,0.566,3.359,0.85,5.039,0.85c2.07,0,3.994-0.518,5.771-1.553l0.469,0.703
		c-3.262,2.852-6.279,4.277-9.053,4.277c-1.172,0-2.393-0.166-3.662-0.498c-2.402,2.852-4.443,5.498-6.123,7.939
		c2.832-1.934,5.166-2.9,7.002-2.9c1.367,0,2.549,0.493,3.545,1.479s1.494,2.163,1.494,3.53c0,4.492-2.432,8.555-7.295,12.188
		c-4.531,3.379-9.121,5.068-13.77,5.068c-2.734,0-4.102-1.26-4.102-3.779c0-0.508,0.273-0.996,0.82-1.465s1.074-0.703,1.582-0.703
		c0.371,0,0.693,0.234,0.967,0.703c0.234,0.391,0.352,0.781,0.352,1.172c0,0.508-0.322,0.85-0.967,1.025
		c-0.742,0.215-1.162,0.41-1.26,0.586c0.117,1.094,0.82,1.641,2.109,1.641c3.906,0,8.145-2.705,12.715-8.115
		c1.152-1.348,2.275-2.988,3.369-4.922c1.348-2.363,2.021-4.16,2.021-5.391c0-1.328-0.576-1.992-1.729-1.992
		c-2.91,0-6.396,2.021-10.459,6.064L597.253,400.707z"/>
</g>
<g>
</g>
<g>
	<rect x="146.849" y="454" fill="none" width="513" height="59"/>
	<path d="M152.886,459.766h-4.048v4.552c0,0.238-0.238,0.364-0.462,0.364c-0.238,0-0.462-0.126-0.462-0.364v-9.539
		c0-0.238,0.224-0.337,0.462-0.337c0.224,0,0.462,0.099,0.462,0.337v4.188h4.048v-4.188c0-0.238,0.224-0.337,0.462-0.337
		c0.224,0,0.462,0.099,0.462,0.337v9.539c0,0.238-0.238,0.364-0.462,0.364c-0.238,0-0.462-0.126-0.462-0.364V459.766z"/>
	<path d="M155.426,464.289c0-0.027,0-0.07,0.014-0.098l2.928-9.512c0.07-0.224,0.308-0.322,0.546-0.322
		c0.252,0,0.49,0.113,0.56,0.322l2.914,9.512c0,0.027,0.014,0.057,0.014,0.084c0,0.225-0.308,0.406-0.561,0.406
		c-0.154,0-0.294-0.07-0.35-0.238l-0.644-2.157h-3.88l-0.645,2.157c-0.042,0.168-0.196,0.238-0.364,0.238
		C155.721,464.682,155.426,464.527,155.426,464.289z M160.609,461.488l-1.695-5.646l-1.709,5.646H160.609z"/>
	<path d="M162.289,454.933c-0.014-0.028-0.014-0.07-0.014-0.099c0-0.238,0.294-0.393,0.532-0.393c0.168,0,0.322,0.07,0.364,0.238
		l2.591,8.602l2.577-8.602c0.056-0.168,0.196-0.238,0.351-0.238c0.252,0,0.56,0.183,0.56,0.406c0,0.029-0.014,0.057-0.014,0.085
		l-2.914,9.497c-0.07,0.225-0.308,0.336-0.56,0.336c-0.238,0-0.476-0.098-0.546-0.336L162.289,454.933z"/>
	<path d="M170.86,454.778c0-0.238,0.224-0.337,0.462-0.337c0.224,0,0.462,0.099,0.462,0.337v9.539c0,0.238-0.238,0.364-0.462,0.364
		c-0.238,0-0.462-0.126-0.462-0.364V454.778z"/>
	<path d="M178.662,464.149l-3.894-7.578v7.746c0,0.238-0.238,0.364-0.462,0.364c-0.238,0-0.462-0.126-0.462-0.364v-9.524
		c0-0.253,0.224-0.352,0.462-0.352c0.336,0,0.546,0.295,0.729,0.645l3.782,7.453v-7.761c0-0.238,0.224-0.337,0.462-0.337
		c0.224,0,0.462,0.099,0.462,0.337v9.539c0,0.238-0.238,0.364-0.462,0.364C179.012,464.682,178.802,464.43,178.662,464.149z"/>
	<path d="M184.635,455.297c-1.247,0-1.989,0.672-1.989,2.129v4.342c0,1.457,0.743,2.144,1.989,2.144s1.989-0.687,1.989-2.144v-1.666
		h-1.877c-0.21,0-0.336-0.196-0.336-0.406c0-0.196,0.126-0.393,0.336-0.393h2.465c0.224,0,0.336,0.168,0.336,0.364v2.101
		c0,2.186-1.275,2.998-2.914,2.998c-1.639,0-2.914-0.812-2.914-2.998v-4.342c0-2.172,1.274-2.984,2.899-2.984
		c1.793,0,2.928,1.023,2.928,2.424c0,0.364-0.182,0.477-0.462,0.477c-0.238,0-0.448-0.098-0.462-0.35
		C186.498,455.913,185.854,455.297,184.635,455.297z"/>
	<path d="M197.319,454.441c0.238,0,0.35,0.211,0.35,0.421c0,0.224-0.112,0.448-0.35,0.448h-2.339v9.007
		c0,0.238-0.238,0.364-0.462,0.364c-0.238,0-0.462-0.126-0.462-0.364v-9.007h-2.354c-0.224,0-0.35-0.21-0.35-0.434
		c0-0.211,0.112-0.436,0.35-0.436H197.319z"/>
	<path d="M204.217,459.766h-4.048v4.552c0,0.238-0.238,0.364-0.462,0.364c-0.238,0-0.462-0.126-0.462-0.364v-9.539
		c0-0.238,0.224-0.337,0.462-0.337c0.224,0,0.462,0.099,0.462,0.337v4.188h4.048v-4.188c0-0.238,0.224-0.337,0.462-0.337
		c0.224,0,0.462,0.099,0.462,0.337v9.539c0,0.238-0.238,0.364-0.462,0.364c-0.238,0-0.462-0.126-0.462-0.364V459.766z"/>
	<path d="M208.137,459.148h2.199c0.224,0,0.35,0.196,0.35,0.42c0,0.183-0.098,0.379-0.35,0.379h-2.199v3.88h4.482
		c0.224,0,0.35,0.21,0.35,0.435c0,0.195-0.098,0.42-0.35,0.42h-4.987c-0.21,0-0.42-0.126-0.42-0.364v-9.524
		c0-0.238,0.21-0.352,0.42-0.352h4.987c0.252,0,0.35,0.211,0.35,0.406c0,0.238-0.126,0.449-0.35,0.449h-4.482V459.148z"/>
	<path d="M217.124,454.778c0-0.183,0.154-0.322,0.392-0.337h2.578c1.625,0,2.886,0.799,2.886,2.971v0.14
		c0,2.171-1.275,2.983-2.914,2.983h-2.017v3.782c0,0.238-0.238,0.364-0.462,0.364c-0.238,0-0.462-0.126-0.462-0.364V454.778z
		 M218.048,455.297v4.439h2.017c1.247,0,1.989-0.686,1.989-2.143v-0.168c0-1.457-0.742-2.129-1.989-2.129H218.048z"/>
	<path d="M224.679,454.778c0-0.183,0.14-0.322,0.35-0.337h2.479c1.639,0,3.026,0.659,3.026,2.76c0,1.737-0.967,2.494-2.186,2.704
		l2.157,4.146c0.042,0.057,0.056,0.127,0.056,0.183c0,0.238-0.266,0.476-0.532,0.476c-0.224,0-0.378-0.266-0.49-0.49l-2.157-4.201
		h-1.779v4.3c0,0.238-0.238,0.364-0.462,0.364c-0.238,0-0.462-0.126-0.462-0.364V454.778z M225.604,455.297v3.922h1.905
		c1.247,0,2.101-0.561,2.101-1.975c0-1.401-0.854-1.947-2.101-1.947H225.604z"/>
	<path d="M233.188,459.148h2.199c0.224,0,0.35,0.196,0.35,0.42c0,0.183-0.098,0.379-0.35,0.379h-2.199v3.88h4.482
		c0.224,0,0.35,0.21,0.35,0.435c0,0.195-0.098,0.42-0.35,0.42h-4.987c-0.21,0-0.42-0.126-0.42-0.364v-9.524
		c0-0.238,0.21-0.352,0.42-0.352h4.987c0.252,0,0.35,0.211,0.35,0.406c0,0.238-0.126,0.449-0.35,0.449h-4.482V459.148z"/>
	<path d="M239.636,454.793c0-0.238,0.21-0.352,0.42-0.352h4.958c0.238,0,0.35,0.211,0.35,0.406c0,0.238-0.126,0.449-0.35,0.449
		h-4.454v3.852h2.213c0.21,0,0.336,0.196,0.336,0.42c0,0.183-0.098,0.379-0.336,0.379h-2.213v4.385c0,0.237-0.238,0.35-0.462,0.35
		c-0.238,0-0.462-0.112-0.462-0.35V454.793z"/>
	<path d="M246.898,454.793c0-0.238,0.21-0.352,0.42-0.352h4.958c0.238,0,0.35,0.211,0.35,0.406c0,0.238-0.126,0.449-0.35,0.449
		h-4.454v3.852h2.213c0.21,0,0.336,0.196,0.336,0.42c0,0.183-0.098,0.379-0.336,0.379h-2.213v4.385c0,0.237-0.238,0.35-0.462,0.35
		c-0.238,0-0.462-0.112-0.462-0.35V454.793z"/>
	<path d="M255.085,459.148h2.199c0.224,0,0.35,0.196,0.35,0.42c0,0.183-0.098,0.379-0.35,0.379h-2.199v3.88h4.482
		c0.224,0,0.35,0.21,0.35,0.435c0,0.195-0.098,0.42-0.35,0.42h-4.987c-0.21,0-0.42-0.126-0.42-0.364v-9.524
		c0-0.238,0.21-0.352,0.42-0.352h4.987c0.252,0,0.35,0.211,0.35,0.406c0,0.238-0.126,0.449-0.35,0.449h-4.482V459.148z"/>
	<path d="M261.534,454.778c0-0.183,0.14-0.322,0.35-0.337h2.479c1.639,0,3.026,0.659,3.026,2.76c0,1.737-0.967,2.494-2.186,2.704
		l2.157,4.146c0.042,0.057,0.056,0.127,0.056,0.183c0,0.238-0.266,0.476-0.532,0.476c-0.224,0-0.378-0.266-0.49-0.49l-2.157-4.201
		h-1.779v4.3c0,0.238-0.238,0.364-0.462,0.364c-0.238,0-0.462-0.126-0.462-0.364V454.778z M262.458,455.297v3.922h1.905
		c1.247,0,2.101-0.561,2.101-1.975c0-1.401-0.854-1.947-2.101-1.947H262.458z"/>
	<path d="M270.042,459.148h2.199c0.224,0,0.35,0.196,0.35,0.42c0,0.183-0.098,0.379-0.35,0.379h-2.199v3.88h4.482
		c0.224,0,0.35,0.21,0.35,0.435c0,0.195-0.098,0.42-0.35,0.42h-4.987c-0.21,0-0.42-0.126-0.42-0.364v-9.524
		c0-0.238,0.21-0.352,0.42-0.352h4.987c0.252,0,0.35,0.211,0.35,0.406c0,0.238-0.126,0.449-0.35,0.449h-4.482V459.148z"/>
	<path d="M279.391,454.441c1.639,0,2.927,0.812,2.927,2.984v4.258c0,2.186-1.289,2.998-2.927,2.998h-2.479
		c-0.252,0-0.42-0.168-0.42-0.35v-9.554c0-0.183,0.168-0.337,0.42-0.337H279.391z M277.416,455.297v8.53h1.975
		c1.247,0,2.003-0.687,2.003-2.144v-4.258c0-1.457-0.756-2.129-2.003-2.129H277.416z"/>
	<path d="M291.949,464.149l-3.894-7.578v7.746c0,0.238-0.238,0.364-0.462,0.364c-0.238,0-0.462-0.126-0.462-0.364v-9.524
		c0-0.253,0.224-0.352,0.462-0.352c0.336,0,0.546,0.295,0.729,0.645l3.782,7.453v-7.761c0-0.238,0.224-0.337,0.462-0.337
		c0.224,0,0.462,0.099,0.462,0.337v9.539c0,0.238-0.238,0.364-0.462,0.364C292.299,464.682,292.089,464.43,291.949,464.149z"/>
	<path d="M296.022,459.148h2.199c0.224,0,0.35,0.196,0.35,0.42c0,0.183-0.098,0.379-0.35,0.379h-2.199v3.88h4.482
		c0.224,0,0.35,0.21,0.35,0.435c0,0.195-0.098,0.42-0.35,0.42h-4.987c-0.21,0-0.42-0.126-0.42-0.364v-9.524
		c0-0.238,0.21-0.352,0.42-0.352h4.987c0.252,0,0.35,0.211,0.35,0.406c0,0.238-0.126,0.449-0.35,0.449h-4.482V459.148z"/>
	<path d="M308.013,454.441c0.238,0,0.35,0.211,0.35,0.421c0,0.224-0.112,0.448-0.35,0.448h-2.339v9.007
		c0,0.238-0.238,0.364-0.462,0.364c-0.238,0-0.462-0.126-0.462-0.364v-9.007h-2.354c-0.224,0-0.35-0.21-0.35-0.434
		c0-0.211,0.112-0.436,0.35-0.436H308.013z"/>
	<path d="M317.209,464.43c-0.07,0.225-0.309,0.336-0.561,0.336c-0.238,0-0.49-0.098-0.546-0.336l-1.331-4.945l-1.331,4.945
		c-0.056,0.225-0.294,0.336-0.546,0.336c-0.252,0-0.49-0.098-0.561-0.336l-2.759-9.497c-0.014-0.042-0.014-0.07-0.014-0.112
		c0-0.225,0.28-0.379,0.532-0.379c0.168,0,0.322,0.085,0.364,0.238l2.423,8.602l1.401-5.225c0.056-0.238,0.266-0.322,0.49-0.322
		s0.406,0.084,0.476,0.322l1.401,5.225l2.423-8.602c0.042-0.153,0.196-0.238,0.364-0.238c0.252,0,0.532,0.154,0.532,0.379
		c0,0.042,0,0.07-0.014,0.112L317.209,464.43z"/>
	<path d="M321.315,461.768v-4.342c0-2.172,1.274-2.984,2.914-2.984c1.639,0,2.914,0.812,2.914,2.984v4.342
		c0,2.186-1.275,2.998-2.914,2.998C322.589,464.766,321.315,463.953,321.315,461.768z M326.217,457.426
		c0-1.457-0.742-2.129-1.989-2.129s-1.989,0.672-1.989,2.129v4.342c0,1.471,0.743,2.144,1.989,2.144s1.989-0.673,1.989-2.144
		V457.426z"/>
	<path d="M329.123,454.778c0-0.183,0.14-0.322,0.35-0.337h2.479c1.639,0,3.026,0.659,3.026,2.76c0,1.737-0.967,2.494-2.186,2.704
		l2.157,4.146c0.042,0.057,0.056,0.127,0.056,0.183c0,0.238-0.266,0.476-0.532,0.476c-0.224,0-0.378-0.266-0.49-0.49l-2.157-4.201
		h-1.779v4.3c0,0.238-0.238,0.364-0.462,0.364c-0.238,0-0.462-0.126-0.462-0.364V454.778z M330.047,455.297v3.922h1.905
		c1.247,0,2.101-0.561,2.101-1.975c0-1.401-0.854-1.947-2.101-1.947H330.047z"/>
	<path d="M336.706,454.778c0-0.238,0.224-0.337,0.462-0.337c0.224,0,0.462,0.099,0.462,0.337v4.958l4.048-5.154
		c0.07-0.098,0.182-0.141,0.294-0.141c0.224,0,0.504,0.238,0.504,0.477c0,0.057-0.014,0.141-0.07,0.211l-3.012,3.74l3.446,5.182
		c0.028,0.057,0.056,0.127,0.056,0.183c0,0.252-0.266,0.476-0.532,0.476c-0.126,0-0.252-0.069-0.35-0.209l-3.236-4.861l-1.148,1.457
		v3.222c0,0.238-0.238,0.364-0.462,0.364c-0.238,0-0.462-0.126-0.462-0.364V454.778z"/>
	<path d="M347.234,464.682c-0.21,0-0.42-0.126-0.42-0.364v-9.539c0-0.238,0.224-0.337,0.462-0.337c0.224,0,0.462,0.099,0.462,0.337
		v9.049h3.992c0.21,0,0.308,0.21,0.308,0.421c0,0.224-0.098,0.434-0.308,0.434H347.234z"/>
	<path d="M353.606,454.778c0-0.238,0.224-0.337,0.462-0.337c0.224,0,0.462,0.099,0.462,0.337v9.539c0,0.238-0.238,0.364-0.462,0.364
		c-0.238,0-0.462-0.126-0.462-0.364V454.778z"/>
	<path d="M361.143,461.979c0-3.109-4.65-1.598-4.65-5.016c0-2.045,1.667-2.549,2.97-2.549c1.05,0,2.353,0.35,2.353,0.854
		c0,0.183-0.154,0.519-0.406,0.519c-0.266,0-0.728-0.533-1.961-0.533c-1.037,0-2.031,0.379-2.031,1.625
		c0,2.605,4.651,1.135,4.651,5.016c0,1.988-1.233,2.885-2.956,2.885c-1.793,0-2.872-1.008-2.872-1.512c0-0.225,0.21-0.52,0.42-0.52
		c0.364,0,0.645,1.163,2.396,1.163C360.359,463.911,361.143,463.253,361.143,461.979z"/>
	<path d="M369.24,454.441c0.238,0,0.35,0.211,0.35,0.421c0,0.224-0.112,0.448-0.35,0.448H366.9v9.007
		c0,0.238-0.238,0.364-0.462,0.364c-0.238,0-0.462-0.126-0.462-0.364v-9.007h-2.353c-0.225,0-0.351-0.21-0.351-0.434
		c0-0.211,0.112-0.436,0.351-0.436H369.24z"/>
	<path d="M373.549,461.768v-4.342c0-2.172,1.274-2.984,2.914-2.984c1.639,0,2.914,0.812,2.914,2.984v4.342
		c0,2.186-1.275,2.998-2.914,2.998C374.823,464.766,373.549,463.953,373.549,461.768z M378.451,457.426
		c0-1.457-0.742-2.129-1.989-2.129s-1.989,0.672-1.989,2.129v4.342c0,1.471,0.743,2.144,1.989,2.144s1.989-0.673,1.989-2.144
		V457.426z"/>
	<path d="M381.356,454.793c0-0.238,0.21-0.352,0.42-0.352h4.958c0.238,0,0.35,0.211,0.35,0.406c0,0.238-0.126,0.449-0.35,0.449
		h-4.454v3.852h2.213c0.21,0,0.336,0.196,0.336,0.42c0,0.183-0.098,0.379-0.336,0.379h-2.213v4.385c0,0.237-0.238,0.35-0.462,0.35
		c-0.238,0-0.462-0.112-0.462-0.35V454.793z"/>
	<path d="M390.302,464.289c0-0.027,0-0.07,0.014-0.098l2.928-9.512c0.07-0.224,0.308-0.322,0.546-0.322
		c0.252,0,0.49,0.113,0.56,0.322l2.914,9.512c0,0.027,0.014,0.057,0.014,0.084c0,0.225-0.308,0.406-0.56,0.406
		c-0.154,0-0.294-0.07-0.35-0.238l-0.645-2.157h-3.88l-0.645,2.157c-0.042,0.168-0.196,0.238-0.364,0.238
		C390.596,464.682,390.302,464.527,390.302,464.289z M395.485,461.488l-1.695-5.646l-1.709,5.646H395.485z"/>
	<path d="M402.796,460.549c0-1.008-0.729-1.736-1.597-1.736c-0.812,0-1.653,0.645-1.653,1.779v3.726c0,0.183-0.21,0.364-0.462,0.364
		s-0.449-0.182-0.449-0.364v-5.925c0-0.196,0.197-0.336,0.449-0.336c0.238,0,0.434,0.14,0.434,0.336v0.645
		c0.309-0.547,0.939-1.064,1.863-1.064s1.652,0.574,1.989,1.4c0.49-0.953,1.316-1.4,2.129-1.4c1.204,0,2.354,0.951,2.354,2.619
		v3.726c0,0.183-0.196,0.364-0.462,0.364c-0.238,0-0.449-0.182-0.449-0.364v-3.726c0-1.177-0.826-1.779-1.596-1.779
		c-0.812,0-1.64,0.672-1.64,1.723v3.797c0,0.252-0.238,0.35-0.462,0.35c-0.211,0-0.448-0.098-0.448-0.35V460.549z"/>
	<path d="M414.572,460.521c0,1.078-0.602,1.121-1.219,1.121h-3.165v0.518c0,1.121,0.896,1.821,2.129,1.821
		c1.106,0,1.373-0.561,1.681-0.561c0.225,0,0.393,0.267,0.393,0.435c0,0.336-0.799,0.924-2.102,0.924
		c-1.765,0-3.012-1.064-3.012-2.661v-1.569c0-1.4,1.205-2.576,2.676-2.576C413.34,457.973,414.572,459.037,414.572,460.521z
		 M412.99,460.97c0.561,0,0.7-0.084,0.7-0.477c0-0.896-0.715-1.765-1.751-1.765c-0.967,0-1.751,0.771-1.751,1.709v0.532H412.99z"/>
	<path d="M418.613,458.812c-0.924,0-1.849,0.771-1.849,2.045v3.46c0,0.183-0.196,0.364-0.462,0.364
		c-0.252,0-0.449-0.182-0.449-0.364v-5.925c0-0.196,0.197-0.336,0.449-0.336c0.238,0,0.434,0.14,0.434,0.336v0.686
		c0.309-0.56,0.967-1.105,1.877-1.105h0.49c0.196,0,0.365,0.195,0.365,0.42c0,0.224-0.169,0.42-0.365,0.42H418.613z"/>
	<path d="M421.627,455.507c0,0.308-0.267,0.589-0.604,0.589c-0.35,0-0.63-0.281-0.63-0.589s0.28-0.574,0.63-0.574
		C421.36,454.933,421.627,455.199,421.627,455.507z M421.486,458.393v5.925c0,0.183-0.21,0.364-0.463,0.364
		c-0.252,0-0.447-0.182-0.447-0.364v-5.925c0-0.196,0.195-0.336,0.447-0.336C421.276,458.057,421.486,458.196,421.486,458.393z"/>
	<path d="M422.926,462.118v-1.499c0-1.484,0.841-2.646,2.703-2.646c1.191,0,1.976,0.531,1.976,0.91c0,0.195-0.183,0.447-0.406,0.447
		c-0.267,0-0.504-0.518-1.526-0.518c-1.219,0-1.836,0.687-1.836,1.807v1.499c0,1.135,0.617,1.821,1.85,1.821
		c1.078,0,1.303-0.533,1.583-0.533c0.252,0,0.42,0.238,0.42,0.449c0,0.378-0.812,0.924-2.045,0.924
		C423.781,464.779,422.926,463.645,422.926,462.118z"/>
	<path d="M429.159,454.778c0-0.238,0.224-0.337,0.462-0.337c0.225,0,0.463,0.099,0.463,0.337v9.539c0,0.238-0.238,0.364-0.463,0.364
		c-0.238,0-0.462-0.126-0.462-0.364V454.778z"/>
	<path d="M432.859,464.317c0,0.183-0.21,0.364-0.463,0.364c-0.266,0-0.447-0.182-0.447-0.364v-5.925
		c0-0.196,0.182-0.336,0.447-0.336c0.225,0,0.421,0.14,0.421,0.336v0.645c0.294-0.547,0.938-1.064,1.877-1.064
		c1.345,0,2.493,1.176,2.493,2.619v3.726c0,0.238-0.238,0.364-0.462,0.364c-0.21,0-0.448-0.126-0.448-0.364v-3.726
		c0-0.896-0.785-1.779-1.751-1.779c-0.827,0-1.667,0.658-1.667,1.779V464.317z"/>
	<path d="M439.732,464.317c0,0.183-0.211,0.364-0.463,0.364c-0.266,0-0.448-0.182-0.448-0.364v-5.925
		c0-0.196,0.183-0.336,0.448-0.336c0.225,0,0.42,0.14,0.42,0.336v0.645c0.295-0.547,0.939-1.064,1.877-1.064
		c1.346,0,2.494,1.176,2.494,2.619v3.726c0,0.238-0.238,0.364-0.463,0.364c-0.21,0-0.447-0.126-0.447-0.364v-3.726
		c0-0.896-0.785-1.779-1.752-1.779c-0.826,0-1.666,0.658-1.666,1.779V464.317z"/>
	<path d="M446.915,464.121c0,0.112-0.015,0.267-0.532,1.569c-0.057,0.112-0.168,0.168-0.28,0.168c-0.153,0-0.336-0.099-0.336-0.267
		c0-0.056,0-0.084,0.014-0.14l0.28-0.729c-0.252-0.099-0.42-0.336-0.42-0.603c0-0.363,0.279-0.658,0.63-0.658
		C446.593,463.463,446.915,463.715,446.915,464.121z"/>
	<path d="M454.168,455.297c-1.303,0-2.018,0.672-2.018,2.129v4.342c0,1.471,0.715,2.144,2.074,2.144c1.666,0,1.82-1.05,1.904-1.723
		c0.028-0.224,0.168-0.364,0.463-0.364c0.322,0,0.462,0.111,0.462,0.574c0,1.274-1.079,2.367-2.928,2.367
		c-1.583,0-2.899-0.812-2.899-2.998v-4.342c0-2.172,1.345-2.984,2.941-2.984c1.835,0,2.886,1.079,2.886,2.34
		c0,0.463-0.14,0.561-0.462,0.561s-0.449-0.154-0.463-0.35C456.102,456.389,455.835,455.297,454.168,455.297z"/>
	<path d="M458.223,464.289c0-0.027,0-0.07,0.015-0.098l2.928-9.512c0.069-0.224,0.308-0.322,0.546-0.322
		c0.252,0,0.49,0.113,0.561,0.322l2.914,9.512c0,0.027,0.014,0.057,0.014,0.084c0,0.225-0.309,0.406-0.561,0.406
		c-0.154,0-0.294-0.07-0.35-0.238l-0.645-2.157h-3.881l-0.645,2.157c-0.041,0.168-0.195,0.238-0.363,0.238
		C458.518,464.682,458.223,464.527,458.223,464.289z M463.406,461.488l-1.695-5.646l-1.709,5.646H463.406z"/>
	<path d="M469.461,455.297c-1.303,0-2.017,0.672-2.017,2.129v4.342c0,1.471,0.714,2.144,2.073,2.144c1.667,0,1.82-1.05,1.904-1.723
		c0.029-0.224,0.169-0.364,0.463-0.364c0.322,0,0.463,0.111,0.463,0.574c0,1.274-1.079,2.367-2.928,2.367
		c-1.584,0-2.9-0.812-2.9-2.998v-4.342c0-2.172,1.346-2.984,2.941-2.984c1.836,0,2.887,1.079,2.887,2.34
		c0,0.463-0.141,0.561-0.463,0.561s-0.448-0.154-0.463-0.35C471.395,456.389,471.129,455.297,469.461,455.297z"/>
	<path d="M476.947,455.297c-1.246,0-1.989,0.672-1.989,2.129v4.342c0,1.457,0.743,2.144,1.989,2.144s1.988-0.687,1.988-2.144v-1.666
		h-1.877c-0.209,0-0.336-0.196-0.336-0.406c0-0.196,0.127-0.393,0.336-0.393h2.466c0.224,0,0.337,0.168,0.337,0.364v2.101
		c0,2.186-1.275,2.998-2.914,2.998s-2.914-0.812-2.914-2.998v-4.342c0-2.172,1.275-2.984,2.9-2.984c1.793,0,2.928,1.023,2.928,2.424
		c0,0.364-0.183,0.477-0.463,0.477c-0.238,0-0.448-0.098-0.463-0.35C478.811,455.913,478.166,455.297,476.947,455.297z"/>
	<path d="M481.453,462.146v-3.74c0-0.168,0.196-0.35,0.463-0.35c0.238,0,0.448,0.182,0.448,0.35v3.74
		c0,0.91,0.771,1.793,1.751,1.793c0.967,0,1.75-0.869,1.75-1.793v-3.754c0-0.183,0.211-0.336,0.463-0.336s0.448,0.153,0.448,0.336
		v3.754c0,1.4-1.219,2.633-2.661,2.633C482.645,464.779,481.453,463.533,481.453,462.146z"/>
	<path d="M493.459,460.521c0,1.078-0.602,1.121-1.219,1.121h-3.165v0.518c0,1.121,0.896,1.821,2.129,1.821
		c1.106,0,1.373-0.561,1.681-0.561c0.225,0,0.393,0.267,0.393,0.435c0,0.336-0.799,0.924-2.102,0.924
		c-1.765,0-3.012-1.064-3.012-2.661v-1.569c0-1.4,1.205-2.576,2.676-2.576C492.227,457.973,493.459,459.037,493.459,460.521z
		 M491.877,460.97c0.561,0,0.7-0.084,0.7-0.477c0-0.896-0.715-1.765-1.751-1.765c-0.967,0-1.751,0.771-1.751,1.709v0.532H491.877z"
		/>
	<path d="M498.061,463.015c0-1.862-3.46-0.812-3.46-3.138c0-0.896,0.616-1.904,2.214-1.904c0.924,0,1.877,0.35,1.877,0.686
		c0,0.154-0.154,0.477-0.379,0.477s-0.658-0.393-1.484-0.393c-1.037,0-1.4,0.631-1.4,1.093c0,1.597,3.473,0.589,3.473,3.138
		c0,1.106-0.826,1.807-2.254,1.807c-1.317,0-2.199-0.588-2.199-1.008c0-0.183,0.14-0.42,0.321-0.42c0.309,0,0.589,0.658,1.849,0.658
		C497.683,464.01,498.061,463.547,498.061,463.015z"/>
	<path d="M501.072,462.623c0,0.91,0.336,1.232,1.303,1.232h0.393c0.252,0,0.42,0.195,0.42,0.406c0,0.224-0.168,0.42-0.42,0.42
		h-0.393c-1.443,0-2.213-0.616-2.213-2.059v-7.383c0-0.195,0.238-0.336,0.447-0.336c0.225,0,0.463,0.141,0.463,0.336v2.816h1.807
		c0.182,0,0.322,0.182,0.322,0.377c0,0.197-0.141,0.379-0.322,0.379h-1.807V462.623z"/>
	<path d="M505.641,464.121c0,0.112-0.015,0.267-0.533,1.569c-0.056,0.112-0.168,0.168-0.279,0.168c-0.154,0-0.336-0.099-0.336-0.267
		c0-0.056,0-0.084,0.014-0.14l0.279-0.729c-0.252-0.099-0.42-0.336-0.42-0.603c0-0.363,0.28-0.658,0.631-0.658
		C505.318,463.463,505.641,463.715,505.641,464.121z"/>
	<path d="M512.893,455.297c-1.303,0-2.017,0.672-2.017,2.129v4.342c0,1.471,0.714,2.144,2.073,2.144c1.667,0,1.82-1.05,1.904-1.723
		c0.029-0.224,0.169-0.364,0.463-0.364c0.322,0,0.463,0.111,0.463,0.574c0,1.274-1.079,2.367-2.928,2.367
		c-1.584,0-2.9-0.812-2.9-2.998v-4.342c0-2.172,1.346-2.984,2.941-2.984c1.836,0,2.887,1.079,2.887,2.34
		c0,0.463-0.141,0.561-0.463,0.561s-0.448-0.154-0.463-0.35C514.826,456.389,514.561,455.297,512.893,455.297z"/>
	<path d="M516.947,464.289c0-0.027,0-0.07,0.015-0.098l2.928-9.512c0.069-0.224,0.308-0.322,0.546-0.322
		c0.252,0,0.49,0.113,0.561,0.322l2.914,9.512c0,0.027,0.014,0.057,0.014,0.084c0,0.225-0.309,0.406-0.561,0.406
		c-0.154,0-0.294-0.07-0.35-0.238l-0.645-2.157h-3.881l-0.645,2.157c-0.041,0.168-0.195,0.238-0.363,0.238
		C517.242,464.682,516.947,464.527,516.947,464.289z M522.131,461.488l-1.695-5.646l-1.709,5.646H522.131z"/>
	<path d="M528.187,455.297c-1.303,0-2.017,0.672-2.017,2.129v4.342c0,1.471,0.714,2.144,2.072,2.144c1.668,0,1.821-1.05,1.905-1.723
		c0.028-0.224,0.169-0.364,0.462-0.364c0.322,0,0.463,0.111,0.463,0.574c0,1.274-1.078,2.367-2.928,2.367
		c-1.583,0-2.899-0.812-2.899-2.998v-4.342c0-2.172,1.345-2.984,2.941-2.984c1.835,0,2.886,1.079,2.886,2.34
		c0,0.463-0.141,0.561-0.463,0.561s-0.447-0.154-0.462-0.35C530.119,456.389,529.854,455.297,528.187,455.297z"/>
	<path d="M537.402,461.979c0-3.109-4.65-1.598-4.65-5.016c0-2.045,1.666-2.549,2.969-2.549c1.051,0,2.354,0.35,2.354,0.854
		c0,0.183-0.154,0.519-0.406,0.519c-0.266,0-0.729-0.533-1.961-0.533c-1.036,0-2.031,0.379-2.031,1.625
		c0,2.605,4.65,1.135,4.65,5.016c0,1.988-1.232,2.885-2.955,2.885c-1.793,0-2.872-1.008-2.872-1.512c0-0.225,0.211-0.52,0.421-0.52
		c0.364,0,0.644,1.163,2.395,1.163C536.617,463.911,537.402,463.253,537.402,461.979z"/>
	<path d="M540.728,462.623c0,0.91,0.337,1.232,1.303,1.232h0.393c0.252,0,0.42,0.195,0.42,0.406c0,0.224-0.168,0.42-0.42,0.42
		h-0.393c-1.442,0-2.213-0.616-2.213-2.059v-7.383c0-0.195,0.238-0.336,0.448-0.336c0.224,0,0.462,0.141,0.462,0.336v2.816h1.808
		c0.182,0,0.322,0.182,0.322,0.377c0,0.197-0.141,0.379-0.322,0.379h-1.808V462.623z"/>
	<path d="M543.985,462.146v-3.74c0-0.168,0.196-0.35,0.462-0.35c0.238,0,0.448,0.182,0.448,0.35v3.74
		c0,0.91,0.771,1.793,1.751,1.793c0.967,0,1.751-0.869,1.751-1.793v-3.754c0-0.183,0.21-0.336,0.463-0.336
		c0.252,0,0.448,0.153,0.448,0.336v3.754c0,1.4-1.219,2.633-2.662,2.633C545.176,464.779,543.985,463.533,543.985,462.146z"/>
	<path d="M555.963,454.33v9.987c0,0.183-0.183,0.364-0.435,0.364c-0.238,0-0.435-0.182-0.435-0.364v-0.616
		c-0.308,0.574-1.05,1.078-1.919,1.078c-1.33,0-2.479-1.274-2.479-2.661v-1.526c0-1.443,1.135-2.619,2.508-2.619
		c0.925,0,1.555,0.518,1.849,1.064v-4.707c0-0.196,0.211-0.336,0.477-0.336C555.78,453.994,555.963,454.134,555.963,454.33z
		 M551.606,462.118c0,0.925,0.798,1.821,1.736,1.821c0.98,0,1.709-0.967,1.709-1.387v-1.961c0-1.121-0.854-1.779-1.694-1.779
		c-0.967,0-1.751,0.883-1.751,1.779V462.118z"/>
	<path d="M558.699,455.507c0,0.308-0.266,0.589-0.602,0.589c-0.351,0-0.631-0.281-0.631-0.589s0.28-0.574,0.631-0.574
		C558.434,454.933,558.699,455.199,558.699,455.507z M558.56,458.393v5.925c0,0.183-0.21,0.364-0.462,0.364
		c-0.253,0-0.448-0.182-0.448-0.364v-5.925c0-0.196,0.195-0.336,0.448-0.336C558.35,458.057,558.56,458.196,558.56,458.393z"/>
	<path d="M565.284,460.592v1.526c0,1.387-1.247,2.661-2.676,2.661c-1.415,0-2.647-1.26-2.647-2.661v-1.526
		c0-1.401,1.19-2.619,2.647-2.619C564.037,457.973,565.284,459.148,565.284,460.592z M564.373,460.592
		c0-0.896-0.784-1.779-1.765-1.779s-1.737,0.883-1.737,1.779v1.526c0,0.938,0.771,1.821,1.737,1.821c0.98,0,1.765-0.883,1.765-1.821
		V460.592z"/>
	<path d="M571.901,459.766h-4.048v4.552c0,0.238-0.238,0.364-0.463,0.364c-0.237,0-0.462-0.126-0.462-0.364v-9.539
		c0-0.238,0.225-0.337,0.462-0.337c0.225,0,0.463,0.099,0.463,0.337v4.188h4.048v-4.188c0-0.238,0.225-0.337,0.463-0.337
		c0.224,0,0.462,0.099,0.462,0.337v9.539c0,0.238-0.238,0.364-0.462,0.364c-0.238,0-0.463-0.126-0.463-0.364V459.766z"/>
	<path d="M574.807,461.768v-4.342c0-2.172,1.275-2.984,2.914-2.984s2.913,0.812,2.913,2.984v4.342c0,2.186-1.274,2.998-2.913,2.998
		S574.807,463.953,574.807,461.768z M579.71,457.426c0-1.457-0.743-2.129-1.989-2.129c-1.247,0-1.989,0.672-1.989,2.129v4.342
		c0,1.471,0.742,2.144,1.989,2.144c1.246,0,1.989-0.673,1.989-2.144V457.426z"/>
	<path d="M586.594,460.844c-0.112,0.21-0.252,0.294-0.379,0.294c-0.126,0-0.252-0.084-0.363-0.294l-2.312-4.44v7.914
		c0,0.238-0.238,0.364-0.463,0.364c-0.237,0-0.462-0.126-0.462-0.364v-9.427c0-0.336,0.225-0.449,0.462-0.449
		c0.337,0,0.561,0.295,0.743,0.645l2.409,4.65l2.409-4.65c0.182-0.35,0.406-0.645,0.742-0.645c0.252,0,0.462,0.113,0.462,0.449
		v9.427c0,0.238-0.224,0.364-0.462,0.364c-0.224,0-0.462-0.126-0.462-0.364v-7.872L586.594,460.844z"/>
	<path d="M592.844,459.148h2.199c0.224,0,0.35,0.196,0.35,0.42c0,0.183-0.098,0.379-0.35,0.379h-2.199v3.88h4.482
		c0.224,0,0.35,0.21,0.35,0.435c0,0.195-0.098,0.42-0.35,0.42h-4.987c-0.21,0-0.42-0.126-0.42-0.364v-9.524
		c0-0.238,0.21-0.352,0.42-0.352h4.987c0.252,0,0.35,0.211,0.35,0.406c0,0.238-0.126,0.449-0.35,0.449h-4.482V459.148z"/>
	<path d="M598.105,460.899h3.643c0.182,0,0.35,0.183,0.35,0.421s-0.168,0.392-0.35,0.392h-3.643c-0.21,0-0.35-0.153-0.35-0.392
		S597.896,460.899,598.105,460.899z"/>
	<path d="M609.62,461.432v0.336c0,2.186-1.274,2.998-2.914,2.998c-1.639,0-2.913-0.812-2.913-2.998v-4.342
		c0-2.172,1.274-2.984,2.941-2.984c1.877,0,2.886,1.178,2.886,2.396c0,0.308-0.168,0.42-0.435,0.42c-0.252,0-0.49-0.098-0.49-0.379
		c0-0.966-0.896-1.582-1.989-1.582c-1.246,0-1.988,0.672-1.988,2.129v2.143c0.476-0.645,1.246-0.924,2.115-0.924
		C608.388,458.645,609.62,459.303,609.62,461.432z M604.718,461.811c0,1.457,0.742,2.129,1.988,2.129
		c1.247,0,1.989-0.672,1.989-2.129v-0.336c0-1.472-0.742-2.031-1.989-2.031c-1.204,0-1.988,0.518-1.988,1.904V461.811z"/>
	<path d="M612.142,456.011l-0.561,0.911c-0.084,0.125-0.183,0.168-0.267,0.168c-0.21,0-0.364-0.196-0.364-0.406
		c0-0.127,0.112-0.336,0.211-0.42l1.148-1.625c0.084-0.112,0.168-0.211,0.35-0.211c0.196,0,0.406,0.127,0.406,0.351v9.539
		c0,0.238-0.237,0.364-0.462,0.364c-0.238,0-0.462-0.126-0.462-0.364V456.011z"/>
	<path d="M620.49,455.997c0,0.112-0.056,0.28-0.14,0.406l-4.16,8.124c-0.057,0.112-0.168,0.182-0.309,0.182
		c-0.28,0-0.561-0.182-0.561-0.447c0-0.057,0.028-0.127,0.057-0.196l4.188-8.013v-0.756h-3.979v1.61
		c0,0.196-0.225,0.351-0.462,0.351c-0.253,0-0.463-0.154-0.463-0.351v-2.114c0-0.169,0.21-0.352,0.421-0.352h4.973
		c0.195,0,0.434,0.183,0.434,0.352V455.997z"/>
	<path d="M624.504,454.441c1.611,0,2.788,1.178,2.788,2.689c0,3.012-4.707,3.965-4.707,5.828v0.868h4.469
		c0.182,0,0.336,0.196,0.336,0.421c0,0.224-0.154,0.434-0.336,0.434h-4.987c-0.182,0-0.434-0.141-0.434-0.364v-1.358
		c0-2.326,4.734-3.348,4.734-5.799c0-0.883-0.603-1.85-1.892-1.85c-0.966,0-1.694,0.547-1.694,1.652c0,0.183-0.168,0.379-0.49,0.379
		c-0.28,0-0.42-0.154-0.42-0.574C621.871,455.423,623.02,454.441,624.504,454.441z"/>
	<path d="M630.092,464.121c0,0.112-0.014,0.267-0.532,1.569c-0.056,0.112-0.168,0.168-0.28,0.168c-0.154,0-0.336-0.099-0.336-0.267
		c0-0.056,0-0.084,0.014-0.14l0.28-0.729c-0.252-0.099-0.42-0.336-0.42-0.603c0-0.363,0.28-0.658,0.63-0.658
		C629.77,463.463,630.092,463.715,630.092,464.121z"/>
	<path d="M148.782,472.307c0,0.309-0.266,0.589-0.603,0.589c-0.35,0-0.63-0.28-0.63-0.589c0-0.308,0.28-0.574,0.63-0.574
		C148.516,471.732,148.782,471.999,148.782,472.307z M148.642,475.192v5.925c0,0.183-0.21,0.365-0.462,0.365
		c-0.252,0-0.448-0.183-0.448-0.365v-5.925c0-0.196,0.196-0.336,0.448-0.336C148.432,474.856,148.642,474.996,148.642,475.192z"/>
	<path d="M151.44,479.689c-0.21,0.111-0.434,0.252-0.434,0.546c0,1.261,4.356-0.042,4.356,2.507c0,1.317-1.149,1.989-2.746,1.989
		c-1.639,0-2.844-0.7-2.844-1.862c0-0.812,0.588-1.289,1.191-1.527c-0.448-0.154-0.771-0.406-0.771-0.967
		c0-0.518,0.28-0.784,0.7-1.008c-0.49-0.406-0.771-1.037-0.771-1.766v-0.532c0-1.345,0.953-2.297,2.41-2.297
		c0.658,0,1.232,0.224,1.639,0.589c0.28-0.561,0.672-0.883,0.995-0.883c0.28,0,0.42,0.195,0.42,0.363s-0.112,0.281-0.238,0.309
		c-0.224,0.042-0.532,0.168-0.785,0.603c0.266,0.351,0.393,0.826,0.393,1.316v0.532c0,1.331-1.009,2.326-2.438,2.326
		C152.126,479.928,151.762,479.844,151.44,479.689z M151.902,481.538c-0.659,0.21-1.247,0.574-1.247,1.247
		c0,0.756,0.743,1.274,1.947,1.274c1.177,0,1.877-0.505,1.877-1.289C154.479,481.607,152.785,481.664,151.902,481.538z
		 M154.06,477.069c0-0.91-0.561-1.61-1.527-1.61c-0.967,0-1.527,0.7-1.527,1.61v0.519c0,0.938,0.574,1.652,1.541,1.652
		c0.938,0,1.513-0.699,1.513-1.639V477.069z"/>
	<path d="M156.671,478.947v-3.74c0-0.168,0.196-0.351,0.462-0.351c0.238,0,0.448,0.183,0.448,0.351v3.74
		c0,0.91,0.77,1.793,1.751,1.793c0.966,0,1.75-0.869,1.75-1.793v-3.755c0-0.183,0.21-0.336,0.462-0.336s0.448,0.153,0.448,0.336
		v3.755c0,1.4-1.219,2.633-2.661,2.633C157.862,481.58,156.671,480.334,156.671,478.947z"/>
	<path d="M168.087,477.476v3.642c0,0.211-0.182,0.365-0.448,0.365c-0.238,0-0.42-0.154-0.42-0.365v-0.615
		c-0.49,0.56-1.177,1.078-2.115,1.078c-1.064,0-1.905-0.588-1.905-1.85c0-1.526,1.316-1.918,3.264-1.918h0.714v-0.337
		c0-0.896-0.448-1.905-1.653-1.905c-0.938,0-1.275,0.406-1.499,0.406c-0.238,0-0.364-0.279-0.364-0.49
		c0-0.363,0.995-0.714,1.891-0.714C167.428,474.772,168.087,476.075,168.087,477.476z M167.176,478.442h-0.588
		c-1.289,0-2.479,0.126-2.479,1.204c0,0.812,0.532,1.163,1.219,1.163c0.896,0,1.849-0.841,1.849-1.471V478.442z"/>
	<path d="M170.631,481.117c0,0.183-0.21,0.365-0.462,0.365c-0.266,0-0.448-0.183-0.448-0.365v-5.925
		c0-0.196,0.182-0.336,0.448-0.336c0.224,0,0.42,0.14,0.42,0.336v0.645c0.294-0.546,0.938-1.064,1.877-1.064
		c1.345,0,2.493,1.177,2.493,2.619v3.726c0,0.238-0.238,0.365-0.462,0.365c-0.21,0-0.448-0.127-0.448-0.365v-3.726
		c0-0.896-0.785-1.778-1.751-1.778c-0.827,0-1.667,0.658-1.667,1.778V481.117z"/>
	<path d="M181.073,477.476v3.642c0,0.211-0.182,0.365-0.448,0.365c-0.238,0-0.42-0.154-0.42-0.365v-0.615
		c-0.49,0.56-1.177,1.078-2.115,1.078c-1.064,0-1.905-0.588-1.905-1.85c0-1.526,1.316-1.918,3.264-1.918h0.714v-0.337
		c0-0.896-0.448-1.905-1.653-1.905c-0.938,0-1.275,0.406-1.499,0.406c-0.238,0-0.364-0.279-0.364-0.49
		c0-0.363,0.995-0.714,1.891-0.714C180.414,474.772,181.073,476.075,181.073,477.476z M180.162,478.442h-0.588
		c-1.289,0-2.479,0.126-2.479,1.204c0,0.812,0.532,1.163,1.219,1.163c0.896,0,1.849-0.841,1.849-1.471V478.442z"/>
	<path d="M183.921,480.922c0,0.111-0.014,0.266-0.532,1.568c-0.056,0.112-0.168,0.168-0.28,0.168c-0.154,0-0.336-0.098-0.336-0.266
		c0-0.057,0-0.084,0.014-0.141l0.28-0.729c-0.252-0.098-0.42-0.336-0.42-0.602c0-0.364,0.28-0.658,0.63-0.658
		C183.599,480.264,183.921,480.516,183.921,480.922z"/>
	<path d="M188.344,471.578c0-0.182,0.14-0.322,0.35-0.336h2.479c1.639,0,3.026,0.658,3.026,2.76c0,1.736-0.967,2.493-2.186,2.703
		l2.157,4.146c0.042,0.057,0.056,0.126,0.056,0.182c0,0.238-0.266,0.477-0.532,0.477c-0.224,0-0.378-0.266-0.49-0.49l-2.157-4.202
		h-1.779v4.3c0,0.238-0.238,0.365-0.462,0.365c-0.238,0-0.462-0.127-0.462-0.365V471.578z M189.269,472.097v3.923h1.905
		c1.247,0,2.101-0.561,2.101-1.976c0-1.401-0.854-1.947-2.101-1.947H189.269z"/>
	<path d="M198.828,471.242c1.639,0,2.927,0.812,2.927,2.984v4.258c0,2.186-1.289,2.998-2.927,2.998h-2.479
		c-0.252,0-0.42-0.168-0.42-0.351v-9.554c0-0.182,0.168-0.336,0.42-0.336H198.828z M196.853,472.097v8.53h1.975
		c1.247,0,2.003-0.686,2.003-2.143v-4.258c0-1.457-0.756-2.13-2.003-2.13H196.853z"/>
	<path d="M208.651,471.578c0-0.238,0.224-0.336,0.462-0.336c0.224,0,0.462,0.098,0.462,0.336v6.99c0,2.186-1.303,2.998-2.941,2.998
		c-1.653,0-2.942-0.812-2.942-2.998v-6.99c0-0.238,0.238-0.336,0.462-0.336c0.238,0,0.462,0.098,0.462,0.336v6.99
		c0,1.457,0.756,2.143,2.017,2.143c1.26,0,2.017-0.686,2.017-2.143V471.578z"/>
	<path d="M210.988,481.482h4.482c0.182,0,0.351,0.182,0.351,0.42s-0.168,0.393-0.351,0.393h-4.482c-0.21,0-0.35-0.154-0.35-0.393
		S210.778,481.482,210.988,481.482z"/>
	<path d="M223.084,481.23c-0.07,0.224-0.308,0.336-0.56,0.336c-0.238,0-0.49-0.099-0.546-0.336l-1.331-4.945l-1.331,4.945
		c-0.056,0.224-0.294,0.336-0.546,0.336c-0.252,0-0.49-0.099-0.561-0.336l-2.759-9.498c-0.014-0.042-0.014-0.07-0.014-0.111
		c0-0.225,0.28-0.379,0.532-0.379c0.168,0,0.322,0.084,0.364,0.238l2.423,8.601l1.401-5.225c0.056-0.238,0.266-0.322,0.49-0.322
		s0.406,0.084,0.476,0.322l1.401,5.225l2.423-8.601c0.042-0.154,0.196-0.238,0.364-0.238c0.252,0,0.532,0.154,0.532,0.379
		c0,0.041,0,0.069-0.014,0.111L223.084,481.23z"/>
	<path d="M228.327,472.307c0,0.309-0.266,0.589-0.603,0.589c-0.35,0-0.63-0.28-0.63-0.589c0-0.308,0.28-0.574,0.63-0.574
		C228.061,471.732,228.327,471.999,228.327,472.307z M228.187,475.192v5.925c0,0.183-0.21,0.365-0.462,0.365
		c-0.252,0-0.448-0.183-0.448-0.365v-5.925c0-0.196,0.196-0.336,0.448-0.336C227.977,474.856,228.187,474.996,228.187,475.192z"/>
	<path d="M230.933,473.441v1.415h1.779c0.196,0,0.322,0.183,0.322,0.364c0,0.21-0.126,0.393-0.322,0.393h-1.779v5.519
		c0,0.21-0.224,0.351-0.476,0.351c-0.238,0-0.435-0.141-0.435-0.351v-7.662c0-1.331,1.022-2.676,2.914-2.676
		c1.037,0,2.157,0.393,2.157,0.868c0,0.183-0.168,0.505-0.364,0.505c-0.252,0-0.602-0.546-1.751-0.546
		C231.451,471.621,230.933,472.657,230.933,473.441z M235.359,475.192v5.925c0,0.183-0.21,0.365-0.462,0.365
		c-0.252,0-0.448-0.183-0.448-0.365v-5.925c0-0.196,0.196-0.336,0.448-0.336C235.149,474.856,235.359,474.996,235.359,475.192z"/>
	<path d="M238.286,480.922c0,0.111-0.014,0.266-0.532,1.568c-0.056,0.112-0.168,0.168-0.28,0.168c-0.154,0-0.336-0.098-0.336-0.266
		c0-0.057,0-0.084,0.014-0.141l0.28-0.729c-0.252-0.098-0.42-0.336-0.42-0.602c0-0.364,0.28-0.658,0.63-0.658
		C237.963,480.264,238.286,480.516,238.286,480.922z"/>
	<path d="M245.287,475.613c-0.925,0-1.849,0.77-1.849,2.045v3.459c0,0.183-0.196,0.365-0.462,0.365
		c-0.252,0-0.448-0.183-0.448-0.365v-5.925c0-0.196,0.196-0.336,0.448-0.336c0.238,0,0.435,0.14,0.435,0.336v0.687
		c0.308-0.561,0.966-1.106,1.877-1.106h0.49c0.196,0,0.364,0.196,0.364,0.42s-0.168,0.421-0.364,0.421H245.287z"/>
	<path d="M252.074,477.322c0,1.078-0.603,1.12-1.219,1.12h-3.166v0.519c0,1.12,0.896,1.82,2.129,1.82
		c1.106,0,1.373-0.561,1.681-0.561c0.224,0,0.392,0.267,0.392,0.435c0,0.337-0.798,0.925-2.101,0.925
		c-1.765,0-3.012-1.064-3.012-2.662v-1.568c0-1.4,1.205-2.577,2.675-2.577C250.841,474.772,252.074,475.837,252.074,477.322z
		 M250.491,477.77c0.561,0,0.701-0.084,0.701-0.477c0-0.896-0.715-1.764-1.751-1.764c-0.967,0-1.751,0.77-1.751,1.709v0.531H250.491
		z"/>
	<path d="M254.405,472.307c0,0.309-0.266,0.589-0.603,0.589c-0.35,0-0.63-0.28-0.63-0.589c0-0.308,0.28-0.574,0.63-0.574
		C254.139,471.732,254.405,471.999,254.405,472.307z M254.265,475.192v5.925c0,0.183-0.21,0.365-0.462,0.365
		c-0.252,0-0.448-0.183-0.448-0.365v-5.925c0-0.196,0.196-0.336,0.448-0.336C254.055,474.856,254.265,474.996,254.265,475.192z"/>
	<path d="M256.19,477.699h3.642c0.182,0,0.35,0.183,0.35,0.421s-0.168,0.392-0.35,0.392h-3.642c-0.21,0-0.35-0.153-0.35-0.392
		S255.98,477.699,256.19,477.699z"/>
	<path d="M262.962,479.689c-0.21,0.111-0.434,0.252-0.434,0.546c0,1.261,4.356-0.042,4.356,2.507c0,1.317-1.148,1.989-2.745,1.989
		c-1.639,0-2.844-0.7-2.844-1.862c0-0.812,0.588-1.289,1.191-1.527c-0.448-0.154-0.771-0.406-0.771-0.967
		c0-0.518,0.28-0.784,0.7-1.008c-0.49-0.406-0.771-1.037-0.771-1.766v-0.532c0-1.345,0.953-2.297,2.41-2.297
		c0.658,0,1.232,0.224,1.639,0.589c0.28-0.561,0.672-0.883,0.995-0.883c0.28,0,0.42,0.195,0.42,0.363s-0.112,0.281-0.238,0.309
		c-0.224,0.042-0.532,0.168-0.785,0.603c0.266,0.351,0.393,0.826,0.393,1.316v0.532c0,1.331-1.009,2.326-2.438,2.326
		C263.648,479.928,263.284,479.844,262.962,479.689z M263.424,481.538c-0.659,0.21-1.247,0.574-1.247,1.247
		c0,0.756,0.742,1.274,1.947,1.274c1.177,0,1.877-0.505,1.877-1.289C266.001,481.607,264.307,481.664,263.424,481.538z
		 M265.582,477.069c0-0.91-0.561-1.61-1.527-1.61c-0.967,0-1.527,0.7-1.527,1.61v0.519c0,0.938,0.574,1.652,1.541,1.652
		c0.938,0,1.513-0.699,1.513-1.639V477.069z"/>
	<path d="M268.193,478.947v-3.74c0-0.168,0.196-0.351,0.462-0.351c0.238,0,0.448,0.183,0.448,0.351v3.74
		c0,0.91,0.77,1.793,1.751,1.793c0.966,0,1.75-0.869,1.75-1.793v-3.755c0-0.183,0.21-0.336,0.462-0.336s0.448,0.153,0.448,0.336
		v3.755c0,1.4-1.219,2.633-2.661,2.633C269.383,481.58,268.193,480.334,268.193,478.947z"/>
	<path d="M280.199,477.322c0,1.078-0.603,1.12-1.219,1.12h-3.166v0.519c0,1.12,0.896,1.82,2.129,1.82
		c1.106,0,1.373-0.561,1.681-0.561c0.224,0,0.392,0.267,0.392,0.435c0,0.337-0.798,0.925-2.101,0.925
		c-1.765,0-3.012-1.064-3.012-2.662v-1.568c0-1.4,1.205-2.577,2.675-2.577C278.966,474.772,280.199,475.837,280.199,477.322z
		 M278.616,477.77c0.561,0,0.7-0.084,0.7-0.477c0-0.896-0.714-1.764-1.75-1.764c-0.967,0-1.751,0.77-1.751,1.709v0.531H278.616z"/>
	<path d="M284.8,479.814c0-1.862-3.46-0.812-3.46-3.137c0-0.896,0.617-1.905,2.213-1.905c0.924,0,1.877,0.351,1.877,0.687
		c0,0.154-0.154,0.477-0.378,0.477s-0.658-0.393-1.484-0.393c-1.037,0-1.401,0.63-1.401,1.092c0,1.598,3.474,0.589,3.474,3.139
		c0,1.105-0.826,1.807-2.255,1.807c-1.317,0-2.199-0.588-2.199-1.009c0-0.183,0.14-0.42,0.322-0.42c0.308,0,0.588,0.658,1.849,0.658
		C284.422,480.81,284.8,480.348,284.8,479.814z"/>
	<path d="M287.812,479.423c0,0.911,0.336,1.232,1.303,1.232h0.392c0.252,0,0.42,0.196,0.42,0.406c0,0.224-0.168,0.421-0.42,0.421
		h-0.392c-1.443,0-2.213-0.617-2.213-2.06v-7.382c0-0.196,0.238-0.336,0.448-0.336c0.224,0,0.462,0.14,0.462,0.336v2.815h1.807
		c0.182,0,0.322,0.183,0.322,0.378c0,0.196-0.14,0.379-0.322,0.379h-1.807V479.423z"/>
	<path d="M292.38,480.922c0,0.111-0.014,0.266-0.532,1.568c-0.056,0.112-0.168,0.168-0.28,0.168c-0.154,0-0.336-0.098-0.336-0.266
		c0-0.057,0-0.084,0.014-0.141l0.28-0.729c-0.252-0.098-0.42-0.336-0.42-0.602c0-0.364,0.28-0.658,0.63-0.658
		C292.058,480.264,292.38,480.516,292.38,480.922z"/>
	<path d="M302.617,481.37c-0.056,0.168-0.21,0.224-0.364,0.224c-0.196,0-0.308-0.07-0.378-0.21l-1.457-4.552l-1.443,4.482
		c-0.056,0.195-0.21,0.279-0.406,0.279c-0.182,0-0.308-0.056-0.378-0.279l-2.185-5.869c-0.028-0.057-0.056-0.154-0.056-0.211
		c0-0.225,0.294-0.406,0.546-0.406c0.14,0,0.28,0.07,0.322,0.211l1.793,4.986l1.443-4.553c0.056-0.182,0.182-0.238,0.364-0.238
		c0.168,0,0.308,0.057,0.364,0.238l1.387,4.608l1.835-5.042c0.028-0.127,0.168-0.211,0.308-0.211c0.238,0,0.546,0.154,0.546,0.406
		c0,0.07-0.028,0.168-0.056,0.211L302.617,481.37z"/>
	<path d="M310.942,477.322c0,1.078-0.603,1.12-1.219,1.12h-3.166v0.519c0,1.12,0.896,1.82,2.129,1.82
		c1.106,0,1.373-0.561,1.681-0.561c0.224,0,0.392,0.267,0.392,0.435c0,0.337-0.798,0.925-2.101,0.925
		c-1.765,0-3.012-1.064-3.012-2.662v-1.568c0-1.4,1.205-2.577,2.675-2.577C309.709,474.772,310.942,475.837,310.942,477.322z
		 M309.359,477.77c0.561,0,0.701-0.084,0.701-0.477c0-0.896-0.715-1.764-1.751-1.764c-0.967,0-1.751,0.77-1.751,1.709v0.531H309.359
		z"/>
	<path d="M315.543,479.814c0-1.862-3.46-0.812-3.46-3.137c0-0.896,0.616-1.905,2.213-1.905c0.924,0,1.877,0.351,1.877,0.687
		c0,0.154-0.154,0.477-0.378,0.477s-0.658-0.393-1.484-0.393c-1.037,0-1.401,0.63-1.401,1.092c0,1.598,3.474,0.589,3.474,3.139
		c0,1.105-0.826,1.807-2.255,1.807c-1.317,0-2.199-0.588-2.199-1.009c0-0.183,0.14-0.42,0.322-0.42c0.309,0,0.588,0.658,1.849,0.658
		C315.165,480.81,315.543,480.348,315.543,479.814z"/>
	<path d="M318.555,479.423c0,0.911,0.336,1.232,1.303,1.232h0.392c0.252,0,0.42,0.196,0.42,0.406c0,0.224-0.168,0.421-0.42,0.421
		h-0.392c-1.443,0-2.213-0.617-2.213-2.06v-7.382c0-0.196,0.238-0.336,0.448-0.336c0.224,0,0.462,0.14,0.462,0.336v2.815h1.807
		c0.182,0,0.322,0.183,0.322,0.378c0,0.196-0.14,0.379-0.322,0.379h-1.807V479.423z"/>
	<path d="M326.7,477.322c0,1.078-0.603,1.12-1.219,1.12h-3.166v0.519c0,1.12,0.896,1.82,2.129,1.82c1.106,0,1.373-0.561,1.681-0.561
		c0.224,0,0.392,0.267,0.392,0.435c0,0.337-0.798,0.925-2.101,0.925c-1.765,0-3.012-1.064-3.012-2.662v-1.568
		c0-1.4,1.205-2.577,2.675-2.577C325.467,474.772,326.7,475.837,326.7,477.322z M325.117,477.77c0.561,0,0.701-0.084,0.701-0.477
		c0-0.896-0.715-1.764-1.751-1.764c-0.967,0-1.751,0.77-1.751,1.709v0.531H325.117z"/>
	<path d="M328.971,471.131v9.986c0,0.183-0.196,0.365-0.462,0.365c-0.252,0-0.448-0.183-0.448-0.365v-9.986
		c0-0.197,0.196-0.337,0.448-0.337C328.775,470.794,328.971,470.934,328.971,471.131z"/>
	<path d="M331.66,471.131v9.986c0,0.183-0.196,0.365-0.462,0.365c-0.252,0-0.448-0.183-0.448-0.365v-9.986
		c0-0.197,0.196-0.337,0.448-0.337C331.464,470.794,331.66,470.934,331.66,471.131z"/>
	<path d="M334.189,472.811l-0.56,0.911c-0.084,0.126-0.182,0.168-0.266,0.168c-0.21,0-0.364-0.196-0.364-0.406
		c0-0.126,0.112-0.336,0.21-0.42l1.149-1.625c0.084-0.112,0.168-0.21,0.35-0.21c0.196,0,0.406,0.126,0.406,0.35v9.539
		c0,0.238-0.238,0.365-0.462,0.365c-0.238,0-0.462-0.127-0.462-0.365V472.811z"/>
	<path d="M337.804,472.811l-0.56,0.911c-0.084,0.126-0.182,0.168-0.266,0.168c-0.21,0-0.364-0.196-0.364-0.406
		c0-0.126,0.112-0.336,0.21-0.42l1.149-1.625c0.084-0.112,0.168-0.21,0.35-0.21c0.196,0,0.406,0.126,0.406,0.35v9.539
		c0,0.238-0.238,0.365-0.462,0.365c-0.238,0-0.462-0.127-0.462-0.365V472.811z"/>
	<path d="M340.579,478.568v-4.342c0-2.172,1.274-2.984,2.914-2.984c1.639,0,2.914,0.812,2.914,2.984v4.342
		c0,2.186-1.275,2.998-2.914,2.998C341.853,481.566,340.579,480.754,340.579,478.568z M345.481,474.227
		c0-1.457-0.743-2.13-1.989-2.13s-1.989,0.673-1.989,2.13v4.342c0,1.471,0.743,2.143,1.989,2.143s1.989-0.672,1.989-2.143V474.227z
		 M344.01,476.411c0,0.28-0.224,0.519-0.504,0.519c-0.309,0-0.519-0.238-0.519-0.519c0-0.294,0.21-0.505,0.519-0.505
		C343.786,475.906,344.01,476.117,344.01,476.411z"/>
	<path d="M352.84,478.61v-0.267c0-1.288-0.785-1.862-1.989-1.862c-0.266,0-0.364-0.196-0.364-0.393s0.098-0.406,0.351-0.406
		c1.121,0,1.75-0.406,1.75-1.793c0-1.218-0.518-1.807-1.695-1.807c-1.471,0-1.793,0.896-1.793,1.499
		c0,0.279-0.126,0.447-0.448,0.447c-0.364,0-0.476-0.125-0.476-0.531c0-0.771,0.518-2.256,2.746-2.256
		c1.513,0,2.563,0.658,2.563,2.465c0,1.275-0.504,2.06-1.148,2.368c0.827,0.336,1.429,1.022,1.429,2.269v0.267
		c0,2.144-1.303,2.956-2.927,2.956c-1.989,0-2.9-1.275-2.9-2.312c0-0.393,0.126-0.49,0.435-0.49c0.364,0,0.476,0.153,0.476,0.392
		c0,0.603,0.434,1.555,1.975,1.555C352.126,480.711,352.84,480.053,352.84,478.61z"/>
</g>
<g>
</g>
<g>
</g>
<g>
</g>
<g>
</g>
<g>
</g>
<g>
</g>
</svg>
